<svg width="137" height="136" viewBox="0 0 137 136" fill="none" xmlns="http://www.w3.org/2000/svg">
<path d="M45.7894 101.123C45.7782 101.123 45.7673 101.121 45.7561 101.121C45.745 101.121 45.734 101.123 45.7229 101.123C44.9271 101.114 44.167 100.796 43.6072 100.239C43.0474 99.6818 42.733 98.9299 42.7319 98.1461C42.7319 97.7288 42.5636 97.3286 42.264 97.0335C41.9644 96.7384 41.558 96.5726 41.1343 96.5726C40.7106 96.5726 40.3042 96.7384 40.0046 97.0335C39.705 97.3286 39.5367 97.7288 39.5367 98.1461C39.5387 99.4961 39.9926 100.808 40.8282 101.878C41.6637 102.948 42.8343 103.717 44.1585 104.066V105.406C44.1585 105.824 44.3269 106.224 44.6265 106.519C44.9261 106.814 45.3324 106.98 45.7561 106.98C46.1798 106.98 46.5862 106.814 46.8858 106.519C47.1854 106.224 47.3537 105.824 47.3537 105.406V104.066C48.813 103.684 50.0813 102.792 50.922 101.557C51.7628 100.321 52.1185 98.827 51.9229 97.3524C51.7274 95.8778 50.9938 94.5236 49.8591 93.5425C48.7244 92.5614 47.2661 92.0203 45.7561 92.0203C45.158 92.0204 44.5732 91.8458 44.0758 91.5185C43.5784 91.1913 43.1907 90.7262 42.9617 90.1819C42.7327 89.6376 42.6728 89.0387 42.7894 88.4609C42.906 87.8831 43.194 87.3523 43.617 86.9357C44.0399 86.5191 44.5788 86.2353 45.1654 86.1203C45.7521 86.0054 46.3602 86.0643 46.9128 86.2897C47.4655 86.5152 47.9378 86.8969 48.2701 87.3868C48.6025 87.8766 48.7799 88.4525 48.7799 89.0417C48.7799 89.459 48.9482 89.8592 49.2478 90.1543C49.5474 90.4494 49.9537 90.6152 50.3774 90.6152C50.8012 90.6152 51.2075 90.4494 51.5071 90.1543C51.8067 89.8592 51.975 89.459 51.975 89.0417C51.9731 87.6916 51.5192 86.3797 50.6836 85.3095C49.8479 84.2392 48.6773 83.4703 47.3529 83.1217V81.9883C47.3529 81.571 47.1846 81.1707 46.885 80.8757C46.5854 80.5806 46.1791 80.4148 45.7553 80.4148C45.3316 80.4148 44.9253 80.5806 44.6257 80.8757C44.3261 81.1707 44.1577 81.571 44.1577 81.9883V83.1217C42.6985 83.5038 41.4302 84.3956 40.5895 85.6309C39.7487 86.8662 39.393 88.3605 39.5885 89.8351C39.7841 91.3097 40.5177 92.6639 41.6524 93.645C42.7871 94.6261 44.2454 95.1672 45.7553 95.1672C46.5533 95.1689 47.3182 95.4811 47.8834 96.0359C48.4486 96.5907 48.7683 97.343 48.7727 98.1289C48.7771 98.9148 48.4659 99.6706 47.9069 100.231C47.3479 100.792 46.5865 101.113 45.7886 101.123H45.7894Z" fill="#2AC7D5"/>
<path d="M127.406 44.6743H97.9815C96.322 44.6762 94.731 45.3263 93.5575 46.4821C92.3841 47.6379 91.724 49.205 91.7222 50.8395V51.1972C91.7219 52.0637 91.9076 52.9204 92.2669 53.7113C92.6263 54.5022 93.1513 55.2094 93.8076 55.7865C93.1513 56.3636 92.6263 57.0708 92.2669 57.8617C91.9075 58.6526 91.7219 59.5094 91.7222 60.3758V60.7338C91.7219 61.6003 91.9075 62.457 92.2668 63.2479C92.6261 64.0388 93.1511 64.746 93.8073 65.3231C93.1511 65.9003 92.6262 66.6075 92.2668 67.3984C91.9075 68.1893 91.7219 69.046 91.7222 69.9125V70.2702C91.7219 71.1367 91.9075 71.9934 92.2669 72.7843C92.6263 73.5752 93.1513 74.2824 93.8076 74.8595C93.1513 75.4366 92.6263 76.1438 92.2669 76.9347C91.9075 77.7256 91.7219 78.5823 91.7222 79.4488V79.8055C91.7219 80.672 91.9075 81.5288 92.2669 82.3197C92.6263 83.1106 93.1513 83.8177 93.8076 84.3948C93.1513 84.9719 92.6263 85.6791 92.2669 86.47C91.9076 87.2609 91.7219 88.1177 91.7222 88.9842V89.3419C91.7219 90.2084 91.9075 91.0651 92.2669 91.856C92.6263 92.6469 93.1513 93.3541 93.8076 93.9312C93.1513 94.5083 92.6263 95.2154 92.2669 96.0063C91.9075 96.7972 91.7219 97.654 91.7222 98.5205V98.8785C91.7219 99.745 91.9076 100.602 92.2669 101.393C92.6263 102.184 93.1513 102.891 93.8076 103.468C93.1513 104.045 92.6263 104.752 92.2669 105.543C91.9075 106.334 91.7219 107.191 91.7222 108.057V108.415C91.7219 109.281 91.9075 110.138 92.2669 110.929C92.6263 111.72 93.1513 112.427 93.8076 113.004C93.1513 113.581 92.6263 114.288 92.2669 115.079C91.9076 115.87 91.7219 116.727 91.7222 117.594V117.951C91.724 119.586 92.3841 121.153 93.5575 122.309C94.731 123.464 96.322 124.115 97.9815 124.116H127.406C129.065 124.115 130.656 123.464 131.83 122.308C133.003 121.153 133.663 119.586 133.665 117.951V117.593C133.665 116.727 133.48 115.87 133.12 115.079C132.761 114.288 132.236 113.581 131.579 113.004C132.236 112.427 132.761 111.72 133.12 110.929C133.48 110.138 133.665 109.281 133.665 108.415V108.057C133.665 107.19 133.48 106.334 133.12 105.543C132.761 104.752 132.236 104.045 131.58 103.468C132.236 102.89 132.761 102.183 133.12 101.392C133.48 100.601 133.665 99.7447 133.665 98.8782V98.5202C133.665 97.6537 133.48 96.7969 133.12 96.006C132.761 95.2151 132.236 94.508 131.579 93.9309C132.236 93.3538 132.761 92.6467 133.12 91.8558C133.48 91.0649 133.665 90.2081 133.665 89.3416V88.9842C133.665 88.1177 133.48 87.2609 133.12 86.4701C132.761 85.6792 132.236 84.972 131.58 84.3948C132.236 83.8177 132.761 83.1105 133.12 82.3196C133.48 81.5287 133.665 80.672 133.665 79.8055V79.4478C133.665 78.5813 133.48 77.7246 133.12 76.9337C132.761 76.1428 132.236 75.4356 131.58 74.8585C132.236 74.2813 132.761 73.5741 133.12 72.7833C133.48 71.9924 133.665 71.1356 133.665 70.2691V69.9114C133.665 69.0449 133.48 68.1882 133.12 67.3973C132.761 66.6064 132.236 65.8992 131.58 65.3221C132.236 64.745 132.761 64.0378 133.12 63.2469C133.48 62.456 133.665 61.5993 133.665 60.7328V60.3756C133.665 59.5091 133.48 58.6523 133.12 57.8614C132.761 57.0706 132.236 56.3634 131.58 55.7863C132.236 55.2091 132.761 54.5019 133.12 53.711C133.48 52.9201 133.665 52.0634 133.665 51.1969V50.8392C133.663 49.2048 133.003 47.6378 131.83 46.482C130.656 45.3263 129.065 44.6762 127.406 44.6743ZM130.47 117.951C130.469 118.751 130.146 119.518 129.571 120.084C128.997 120.65 128.218 120.968 127.406 120.969H97.9815C97.1691 120.968 96.3902 120.65 95.8158 120.084C95.2413 119.518 94.9182 118.751 94.9174 117.951V117.593C94.9182 116.803 95.2335 116.045 95.7955 115.481C96.3575 114.917 97.1214 114.593 97.9235 114.577H127.464C128.266 114.593 129.03 114.917 129.592 115.481C130.154 116.045 130.469 116.803 130.47 117.593V117.951ZM130.47 108.415C130.469 109.205 130.154 109.963 129.592 110.527C129.03 111.091 128.266 111.415 127.464 111.431H97.9235C97.1214 111.415 96.3575 111.091 95.7955 110.527C95.2335 109.963 94.9182 109.205 94.9174 108.415V108.057C94.9182 107.268 95.233 106.51 95.7943 105.946C96.3555 105.382 97.1186 105.058 97.92 105.041H127.467C128.269 105.058 129.032 105.383 129.593 105.946C130.154 106.51 130.469 107.268 130.47 108.057V108.415ZM130.47 98.8785C130.469 99.668 130.154 100.426 129.593 100.989C129.032 101.553 128.269 101.878 127.467 101.894H97.92C97.1186 101.878 96.3556 101.553 95.7943 100.989C95.2331 100.426 94.9183 99.668 94.9174 98.8785V98.5205C94.9182 97.7304 95.2334 96.9721 95.7954 96.4083C96.3574 95.8444 97.1214 95.52 97.9235 95.5047H127.464C128.266 95.5201 129.03 95.8445 129.592 96.4083C130.154 96.9721 130.469 97.7304 130.47 98.5205V98.8785ZM130.47 89.3421C130.469 90.1322 130.154 90.8904 129.592 91.4542C129.03 92.018 128.266 92.3425 127.464 92.358H97.9235C97.1214 92.3425 96.3575 92.0181 95.7955 91.4543C95.2335 90.8905 94.9182 90.1322 94.9174 89.3421V88.9842C94.9183 88.1947 95.2331 87.4369 95.7943 86.8732C96.3556 86.3095 97.1186 85.9847 97.92 85.9683H127.467C128.269 85.9848 129.032 86.3096 129.593 86.8733C130.154 87.437 130.469 88.1947 130.47 88.9842V89.3421ZM130.47 79.806C130.469 80.5955 130.154 81.3533 129.593 81.917C129.032 82.4807 128.269 82.8055 127.467 82.8219H97.92C97.1186 82.8055 96.3555 82.4807 95.7943 81.917C95.233 81.3533 94.9182 80.5955 94.9174 79.806V79.4483C94.9182 78.6588 95.233 77.901 95.7943 77.3373C96.3555 76.7736 97.1186 76.4488 97.92 76.4325H127.467C128.269 76.4489 129.032 76.7737 129.593 77.3374C130.154 77.9011 130.469 78.6588 130.47 79.4483V79.806ZM130.47 70.2697C130.469 71.0591 130.154 71.8168 129.593 72.3805C129.032 72.9442 128.269 73.2691 127.467 73.2855H97.92C97.1186 73.2691 96.3556 72.9443 95.7943 72.3806C95.2331 71.8169 94.9183 71.0592 94.9174 70.2697V69.912C94.9182 69.1224 95.233 68.3647 95.7943 67.8009C96.3555 67.2372 97.1186 66.9124 97.92 66.8961H127.467C128.269 66.9125 129.032 67.2373 129.593 67.801C130.154 68.3647 130.469 69.1225 130.47 69.912V70.2697ZM130.47 60.7336C130.469 61.5231 130.154 62.2808 129.593 62.8445C129.032 63.4082 128.269 63.733 127.467 63.7494H97.92C97.1186 63.7331 96.3555 63.4083 95.7943 62.8446C95.233 62.2809 94.9182 61.5231 94.9174 60.7336V60.3756C94.9182 59.5858 95.2332 58.8278 95.7948 58.264C96.3564 57.7003 97.1199 57.3757 97.9216 57.3597H127.466C128.267 57.3757 129.031 57.7003 129.592 58.264C130.154 58.8278 130.469 59.5858 130.47 60.3756V60.7336ZM130.47 51.1972C130.469 51.987 130.154 52.7449 129.592 53.3087C129.031 53.8724 128.267 54.1971 127.466 54.213H97.9216C97.1199 54.1971 96.3565 53.8724 95.7949 53.3087C95.2333 52.7449 94.9183 51.987 94.9174 51.1972V50.8395C94.9182 50.0393 95.2413 49.2721 95.8158 48.7063C96.3902 48.1405 97.1691 47.8222 97.9815 47.8213H127.406C128.218 47.8223 128.997 48.1406 129.571 48.7064C130.146 49.2722 130.469 50.0393 130.47 50.8395V51.1972Z" fill="#2AC7D5"/>
<path d="M63.5402 30.6816C63.2807 30.3792 62.9151 30.1843 62.5162 30.1357C62.1173 30.0871 61.7144 30.1884 61.3879 30.4193L14.8464 63.3382C14.6759 63.4587 14.5313 63.6111 14.4207 63.7867C14.3101 63.9623 14.2357 64.1576 14.2017 64.3615C14.1678 64.5655 14.1749 64.774 14.2228 64.9751C14.2706 65.1763 14.3583 65.3663 14.4806 65.5341C14.603 65.7019 14.7578 65.8444 14.936 65.9533C15.1143 66.0623 15.3126 66.1355 15.5197 66.169C15.7267 66.2024 15.9384 66.1954 16.1427 66.1483C16.347 66.1011 16.5398 66.0148 16.7102 65.8943L62.0523 33.8236L77.0752 51.337C77.3407 51.6465 77.7173 51.8432 78.1264 51.8862C78.5355 51.9291 78.9456 51.815 79.2714 51.5675L116.67 23.1619L121.768 28.9353C121.975 29.1701 122.249 29.3391 122.553 29.4209C122.858 29.5027 123.181 29.4936 123.481 29.3948C123.78 29.296 124.043 29.1119 124.237 28.8658C124.43 28.6197 124.545 28.3226 124.567 28.0122L125.512 14.6638C125.541 14.2476 125.402 13.837 125.124 13.5223C124.846 13.2076 124.452 13.0145 124.03 12.9854L110.477 12.055C110.161 12.0333 109.847 12.1042 109.572 12.2587C109.298 12.4131 109.076 12.6443 108.936 12.9228C108.795 13.2014 108.741 13.5148 108.781 13.8236C108.821 14.1323 108.953 14.4224 109.16 14.6572L114.57 20.7841L78.5301 48.1567L63.5402 30.6816ZM114.102 15.4574L122.214 16.0144L121.648 24.0037L114.102 15.4574Z" fill="#2AC7D5"/>
<path d="M8.92217 123.877H38.3463C40.0059 123.876 41.5969 123.226 42.7704 122.07C43.9438 120.914 44.6039 119.347 44.6057 117.713V117.355C44.606 116.488 44.4204 115.632 44.0611 114.841C43.7018 114.05 43.1769 113.343 42.5209 112.766C43.0049 112.327 43.418 111.818 43.7457 111.257C45.0809 111.408 46.4294 111.408 47.7647 111.257C48.122 111.873 48.582 112.425 49.1256 112.89C48.4306 113.467 47.872 114.187 47.4889 115C47.1058 115.812 46.9073 116.697 46.9073 117.592V117.95C46.9091 119.585 47.5692 121.152 48.7426 122.307C49.9161 123.463 51.5071 124.113 53.1667 124.115H82.5903C84.2499 124.113 85.8409 123.463 87.0144 122.307C88.1878 121.152 88.8478 119.585 88.8497 117.95V117.592C88.8498 116.695 88.6504 115.808 88.2656 114.994C87.8808 114.18 87.3198 113.46 86.6221 112.882C87.32 112.289 87.8802 111.554 88.2645 110.729C88.6489 109.903 88.8484 109.006 88.8496 108.098C88.8509 107.19 88.6537 106.292 88.2716 105.466C87.8894 104.639 87.3312 103.903 86.6349 103.308C87.3302 102.714 87.8877 101.979 88.2699 101.154C88.652 100.33 88.8497 99.4334 88.8497 98.5267C88.8497 97.62 88.652 96.7238 88.2699 95.8989C87.8877 95.074 87.3302 94.3395 86.6349 93.7453C87.3302 93.151 87.8877 92.4166 88.2698 91.5917C88.652 90.7668 88.8497 89.8706 88.8497 88.964C88.8497 88.0573 88.652 87.1612 88.2698 86.3363C87.8877 85.5114 87.3302 84.7769 86.6349 84.1827C87.3243 83.5933 87.8783 82.8662 88.2602 82.0496C88.6421 81.2329 88.843 80.3456 88.8496 79.4465C88.8562 78.5475 88.6683 77.6574 88.2985 76.8354C87.9286 76.0134 87.3853 75.2785 86.7046 74.6794C87.3783 74.102 87.9183 73.389 88.2884 72.5885C88.6584 71.788 88.8498 70.9187 88.8497 70.0392V69.6828C88.848 68.0482 88.188 66.481 87.0145 65.3252C85.841 64.1693 84.2499 63.5191 82.5903 63.5173H53.1661C51.5065 63.5191 49.9154 64.1693 48.7419 65.3252C47.5685 66.481 46.9085 68.0482 46.9068 69.6828V70.0405C46.9066 70.9199 47.098 71.7891 47.4679 72.5895C47.8379 73.3898 48.3778 74.1028 49.0513 74.6801C48.5699 75.1053 48.156 75.599 47.8233 76.1451C45.4377 75.8685 43.0201 76.0674 40.7142 76.7299C38.4083 77.3924 36.2612 78.505 34.4007 80.0014C32.5403 81.4978 31.0044 83.3475 29.8846 85.4404C28.7647 87.5333 28.0837 89.8267 27.8821 92.1841H9.10377C7.79187 92.1832 6.51102 92.5771 5.43277 93.3132C4.35452 94.0492 3.53035 95.0921 3.07067 96.3023C2.61099 97.5125 2.53774 98.8321 2.86072 100.084C3.18371 101.337 3.88752 102.462 4.87787 103.309C4.19324 103.895 3.642 104.616 3.26034 105.426C2.87868 106.235 2.67522 107.116 2.66333 108.008C2.65144 108.901 2.83137 109.786 3.19133 110.606C3.55128 111.425 4.08312 112.16 4.75193 112.763C4.0947 113.34 3.5688 114.047 3.20876 114.839C2.84872 115.63 2.66266 116.488 2.66281 117.355V117.713C2.66471 119.347 3.32479 120.914 4.49824 122.07C5.67168 123.225 7.26267 123.876 8.92217 123.877ZM85.6545 117.951C85.6536 118.751 85.3306 119.518 84.7561 120.084C84.1816 120.65 83.4028 120.968 82.5903 120.969H53.1661C52.3537 120.968 51.5749 120.65 51.0004 120.084C50.426 119.518 50.1029 118.751 50.102 117.951V117.593C50.1029 116.793 50.426 116.026 51.0005 115.46C51.5749 114.894 52.3538 114.576 53.1661 114.575H82.5903C83.4027 114.576 84.1816 114.894 84.7561 115.46C85.3306 116.026 85.6536 116.793 85.6545 117.593V117.951ZM82.4087 111.287H53.3477C52.5746 111.289 51.8261 111.019 51.2379 110.524C54.5257 109.479 57.4388 107.524 59.6295 104.893H82.4093C83.265 104.901 84.0831 105.241 84.6855 105.84C85.2879 106.438 85.6259 107.247 85.6259 108.09C85.6259 108.933 85.2879 109.742 84.6855 110.34C84.0831 110.939 83.265 111.279 82.4093 111.287H82.4087ZM82.4087 101.724H61.7348C62.7727 99.7311 63.413 97.5607 63.621 95.3303H82.4093C83.265 95.3379 84.0831 95.6781 84.6855 96.2768C85.2879 96.8755 85.6259 97.6843 85.6259 98.5272C85.6259 99.3701 85.2879 100.179 84.6855 100.778C84.0831 101.376 83.265 101.716 82.4093 101.724H82.4087ZM82.4087 92.1613H63.6285C63.4338 89.9338 62.8083 87.7637 61.7857 85.7677H82.4093C83.2701 85.7677 84.0957 86.1045 84.7044 86.704C85.3131 87.3035 85.655 88.1166 85.655 88.9645C85.655 89.8123 85.3131 90.6254 84.7044 91.225C84.0957 91.8245 83.2701 92.1613 82.4093 92.1613H82.4087ZM82.4087 82.5987H59.7072C57.5292 79.9447 54.6199 77.966 51.3284 76.9001C51.9023 76.45 52.6142 76.205 53.3477 76.2049H82.4093C83.265 76.2125 84.0831 76.5527 84.6855 77.1514C85.2879 77.7501 85.6259 78.5589 85.6259 79.4018C85.6259 80.2447 85.2879 81.0535 84.6855 81.6522C84.0831 82.2509 83.265 82.5911 82.4093 82.5987H82.4087ZM50.102 69.6828C50.1029 68.8826 50.426 68.1155 51.0005 67.5498C51.5749 66.984 52.3538 66.6657 53.1661 66.6648H82.5903C83.4027 66.6657 84.1816 66.9839 84.7561 67.5497C85.3306 68.1155 85.6536 68.8826 85.6545 69.6828V70.0405C85.6536 70.8406 85.3306 71.6078 84.7561 72.1737C84.1816 72.7395 83.4028 73.0578 82.5903 73.0587H53.1661C52.3537 73.0577 51.5749 72.7394 51.0004 72.1736C50.426 71.6078 50.1029 70.8406 50.102 70.0405V69.6828ZM45.7562 79.1711C48.6734 79.1711 51.525 80.0231 53.9505 81.6193C56.3759 83.2155 58.2664 85.4842 59.3827 88.1386C60.4991 90.793 60.7912 93.7138 60.2221 96.5317C59.653 99.3496 58.2483 101.938 56.1856 103.97C54.1229 106.001 51.4949 107.385 48.6338 107.945C45.7728 108.506 42.8072 108.218 40.1121 107.119C37.4171 106.019 35.1135 104.157 33.4928 101.769C31.8721 99.3797 31.0071 96.5711 31.007 93.698C31.0112 89.8465 32.5665 86.154 35.3316 83.4305C38.0967 80.707 41.8457 79.175 45.7562 79.1706V79.1711ZM9.10377 95.3305H27.8914C28.0997 97.5609 28.74 99.7314 29.7777 101.724H9.10377C8.24799 101.717 7.4299 101.377 6.8275 100.778C6.22509 100.179 5.88712 99.3704 5.88712 98.5275C5.88712 97.6846 6.22509 96.8758 6.8275 96.2771C7.4299 95.6783 8.24799 95.3382 9.10377 95.3305ZM9.10377 104.893H31.883C34.0721 107.523 36.9828 109.477 40.268 110.522C39.8634 110.863 39.3797 111.1 38.8597 111.212H8.41041C7.62834 111.044 6.93692 110.597 6.46905 109.957C6.00118 109.318 5.78987 108.53 5.87575 107.746C5.96163 106.963 6.33864 106.238 6.9343 105.711C7.52996 105.184 8.30224 104.893 9.1027 104.893H9.10377ZM5.85799 117.355C5.85913 116.651 6.10939 115.97 6.56565 115.429C7.02192 114.888 7.65558 114.521 8.35742 114.39L38.9002 114.389C39.6044 114.517 40.2409 114.883 40.6994 115.425C41.1579 115.967 41.4094 116.65 41.4105 117.355V117.713C41.4097 118.513 41.0866 119.28 40.5121 119.846C39.9377 120.411 39.1588 120.73 38.3463 120.73H8.92217C8.10978 120.73 7.33093 120.411 6.75648 119.846C6.18203 119.28 5.85891 118.513 5.85799 117.713V117.355Z" fill="#2AC7D5"/>
</svg>
