<svg width="137" height="138" viewBox="0 0 137 138" fill="none" xmlns="http://www.w3.org/2000/svg">
<path d="M14.4982 128.283H67.5279V129.071C67.5295 130.519 68.1054 131.908 69.1294 132.932C70.1533 133.956 71.5416 134.532 72.9898 134.534H123.237C124.685 134.532 126.074 133.956 127.098 132.932C128.122 131.908 128.698 130.519 128.699 129.071V65.942C128.698 64.4937 128.122 63.1052 127.098 62.0811C126.073 61.057 124.685 60.481 123.237 60.4793H111.106C110.75 59.0978 109.945 57.8738 108.818 56.9994C107.69 56.1249 106.305 55.6494 104.878 55.6476H102.931V10.2827C102.929 8.49297 102.218 6.77713 100.952 5.51151C99.6869 4.24589 97.9712 3.53382 96.1815 3.53149H14.4982C12.7083 3.53347 10.9923 4.24538 9.72662 5.51104C8.46096 6.7767 7.74904 8.49274 7.74707 10.2827V121.533C7.74911 123.322 8.46106 125.038 9.72671 126.304C10.9924 127.57 12.7084 128.282 14.4982 128.283ZM109.424 66.6215C110.241 65.8088 110.822 64.7906 111.108 63.6744H123.237C123.839 63.6751 124.415 63.9142 124.84 64.3393C125.265 64.7644 125.504 65.3408 125.505 65.942V129.071C125.504 129.672 125.265 130.249 124.84 130.674C124.415 131.099 123.839 131.338 123.237 131.339H72.9898C72.3886 131.338 71.8122 131.099 71.3871 130.674C70.962 130.249 70.7229 129.672 70.7223 129.071V65.942C70.723 65.3408 70.9621 64.7645 71.3872 64.3394C71.8123 63.9143 72.3886 63.6752 72.9898 63.6744H85.1214C85.4778 65.0558 86.2827 66.2797 87.4099 67.1542C88.5371 68.0286 89.9227 68.504 91.3493 68.5058H104.877C105.722 68.5085 106.559 68.3433 107.34 68.0198C108.12 67.6964 108.829 67.221 109.424 66.6215ZM88.2375 56.4501C87.4714 56.8747 86.7999 57.451 86.264 58.1439C85.7281 58.8367 85.3392 59.6316 85.1208 60.4798H75.0059V51.3868H88.2375V56.4501ZM108.112 62.0774C108.111 62.9349 107.771 63.7572 107.164 64.3635C106.558 64.9698 105.735 65.3107 104.878 65.3112H91.3501C90.9229 65.3151 90.4993 65.2343 90.1035 65.0735C89.7077 64.9127 89.3477 64.6751 89.0443 64.3744C88.7409 64.0737 88.5001 63.7159 88.3357 63.3217C88.1713 62.9274 88.0867 62.5044 88.0867 62.0773C88.0867 61.6501 88.1713 61.2271 88.3357 60.8329C88.5001 60.4386 88.7409 60.0808 89.0443 59.7801C89.3477 59.4794 89.7077 59.2418 90.1035 59.081C90.4993 58.9202 90.9229 58.8395 91.3501 58.8433H104.878C105.735 58.8443 106.557 59.1853 107.164 59.7915C107.77 60.3976 108.111 61.2195 108.112 62.0769V62.0774ZM10.9423 10.2827C10.9433 9.33987 11.3183 8.43601 11.9849 7.76937C12.6516 7.10272 13.5554 6.72774 14.4982 6.72668H96.1815C97.124 6.72809 98.0275 7.10323 98.6939 7.76984C99.3603 8.43644 99.7351 9.3401 99.7361 10.2827V55.6476H91.4326V49.7898C91.4326 49.3661 91.2643 48.9597 90.9647 48.6601C90.6651 48.3605 90.2588 48.1922 89.8351 48.1922H73.4083C72.9846 48.1922 72.5783 48.3605 72.2787 48.6601C71.9791 48.9597 71.8108 49.3661 71.8108 49.7898V60.6116C70.5974 60.8813 69.5121 61.5563 68.7336 62.5253C67.9551 63.4943 67.5298 64.6995 67.5279 65.9425V125.088H14.4982C13.5555 125.087 12.6517 124.712 11.985 124.046C11.3184 123.379 10.9434 122.475 10.9423 121.533V10.2827Z" fill="#2AC7D5"/>
<path d="M20.8432 39.9085H89.8349C90.2586 39.9085 90.665 39.7402 90.9646 39.4406C91.2642 39.141 91.4325 38.7346 91.4325 38.3109V15.9713C91.4325 15.5475 91.2642 15.1412 90.9646 14.8416C90.665 14.542 90.2586 14.3737 89.8349 14.3737H20.8432C20.4195 14.3737 20.0131 14.542 19.7135 14.8416C19.4139 15.1412 19.2456 15.5475 19.2456 15.9713V38.3109C19.2456 38.7346 19.4139 39.141 19.7135 39.4406C20.0131 39.7402 20.4195 39.9085 20.8432 39.9085ZM22.4408 17.5688H88.2373V36.7133H22.4408V17.5688Z" fill="#2AC7D5"/>
<path d="M20.8432 67.8135H37.2699C37.6936 67.8135 38.1 67.6452 38.3996 67.3456C38.6992 67.046 38.8675 66.6396 38.8675 66.2159V49.7892C38.8675 49.3655 38.6992 48.9592 38.3996 48.6596C38.1 48.36 37.6936 48.1917 37.2699 48.1917H20.8432C20.4195 48.1917 20.0131 48.36 19.7135 48.6596C19.4139 48.9592 19.2456 49.3655 19.2456 49.7892V66.2159C19.2456 66.6396 19.4139 67.046 19.7135 67.3456C20.0131 67.6452 20.4195 67.8135 20.8432 67.8135ZM22.4408 51.3868H35.6723V64.6183H22.4408V51.3868Z" fill="#2AC7D5"/>
<path d="M63.5526 48.1917H47.1259C46.7022 48.1917 46.2958 48.36 45.9962 48.6596C45.6966 48.9592 45.5283 49.3655 45.5283 49.7892V66.2159C45.5283 66.6396 45.6966 67.046 45.9962 67.3456C46.2958 67.6452 46.7022 67.8135 47.1259 67.8135H63.5526C63.9763 67.8135 64.3827 67.6452 64.6823 67.3456C64.9819 67.046 65.1502 66.6396 65.1502 66.2159V49.7892C65.1502 49.3655 64.9819 48.9592 64.6823 48.6596C64.3827 48.36 63.9763 48.1917 63.5526 48.1917ZM61.955 64.6183H48.7235V51.3868H61.955V64.6183Z" fill="#2AC7D5"/>
<path d="M20.8432 94.0961H37.2699C37.6936 94.0961 38.1 93.9278 38.3996 93.6282C38.6992 93.3286 38.8675 92.9222 38.8675 92.4985V76.0721C38.8675 75.6484 38.6992 75.242 38.3996 74.9424C38.1 74.6428 37.6936 74.4745 37.2699 74.4745H20.8432C20.4195 74.4745 20.0131 74.6428 19.7135 74.9424C19.4139 75.242 19.2456 75.6484 19.2456 76.0721V92.4985C19.2456 92.9222 19.4139 93.3286 19.7135 93.6282C20.0131 93.9278 20.4195 94.0961 20.8432 94.0961ZM22.4408 77.6697H35.6723V90.9009H22.4408V77.6697Z" fill="#2AC7D5"/>
<path d="M63.5526 74.4745H47.1259C46.7022 74.4745 46.2958 74.6428 45.9962 74.9424C45.6966 75.242 45.5283 75.6484 45.5283 76.0721V92.4985C45.5283 92.9222 45.6966 93.3286 45.9962 93.6282C46.2958 93.9278 46.7022 94.0961 47.1259 94.0961H63.5526C63.9763 94.0961 64.3827 93.9278 64.6823 93.6282C64.9819 93.3286 65.1502 92.9222 65.1502 92.4985V76.0721C65.1502 75.6484 64.9819 75.242 64.6823 74.9424C64.3827 74.6428 63.9763 74.4745 63.5526 74.4745ZM61.955 90.9009H48.7235V77.6697H61.955V90.9009Z" fill="#2AC7D5"/>
<path d="M20.8432 120.379H37.2699C37.6936 120.379 38.1 120.21 38.3996 119.911C38.6992 119.611 38.8675 119.205 38.8675 118.781V102.355C38.8675 101.931 38.6992 101.525 38.3996 101.225C38.1 100.925 37.6936 100.757 37.2699 100.757H20.8432C20.4195 100.757 20.0131 100.925 19.7135 101.225C19.4139 101.525 19.2456 101.931 19.2456 102.355V118.781C19.2456 119.205 19.4139 119.611 19.7135 119.911C20.0131 120.21 20.4195 120.379 20.8432 120.379ZM22.4408 103.952H35.6723V117.184H22.4408V103.952Z" fill="#2AC7D5"/>
<path d="M63.5526 100.757H47.1259C46.7022 100.757 46.2958 100.925 45.9962 101.225C45.6966 101.525 45.5283 101.931 45.5283 102.355V118.781C45.5283 119.205 45.6966 119.611 45.9962 119.911C46.2958 120.21 46.7022 120.379 47.1259 120.379H63.5526C63.9763 120.379 64.3827 120.21 64.6823 119.911C64.9819 119.611 65.1502 119.205 65.1502 118.781V102.355C65.1502 101.931 64.9819 101.525 64.6823 101.225C64.3827 100.925 63.9763 100.757 63.5526 100.757ZM61.955 117.184H48.7235V103.952H61.955V117.184Z" fill="#2AC7D5"/>
<path d="M29.3595 23.6612C30.1101 23.6612 30.7491 23.9807 30.7491 24.5878C30.7491 25.3227 31.3562 25.4985 32.0432 25.4985C32.842 25.4985 33.2094 25.2588 33.2094 24.492C33.2094 23.166 32.139 21.4888 29.4391 21.4888C27.1388 21.4888 25.3652 22.511 25.3652 25.2588V29.4924C25.3652 32.24 27.0906 33.2625 29.2951 33.2625C31.4995 33.2625 33.2092 32.24 33.2092 29.4924V29.3486C33.2092 26.7925 31.6755 25.9937 29.8542 25.9937C29.0876 25.9937 28.3687 26.1375 27.8572 26.6966V25.2588C27.8577 24.1551 28.4169 23.6612 29.3595 23.6612ZM29.2796 27.9108C30.19 27.9108 30.7174 28.3581 30.7174 29.5241V29.6679C30.7174 30.7702 30.1902 31.2495 29.2956 31.2495C28.4009 31.2495 27.8577 30.7702 27.8577 29.6679V29.3806C27.8577 28.3249 28.4169 27.9095 29.2796 27.9095V27.9108Z" fill="#2AC7D5"/>
<path d="M40.0312 26.7765C40.9738 26.457 41.6128 25.6582 41.6128 24.3322C41.6128 22.3352 40.1431 21.4888 38.0822 21.4888C36.0213 21.4888 34.5517 22.3355 34.5517 24.3322C34.5517 25.6582 35.1908 26.457 36.1331 26.7765C34.9511 27.1759 34.1523 28.1345 34.1523 29.7797V29.9714C34.1523 32.3518 35.8777 33.2625 38.0822 33.2625C40.2866 33.2625 41.9963 32.3518 41.9963 29.9714V29.7797C41.9965 28.1345 41.2135 27.1759 40.0312 26.7765ZM38.0824 23.4844C38.8013 23.4844 39.2167 23.8356 39.2167 24.6504C39.2167 25.4811 38.8013 25.8007 38.0824 25.8007C37.3635 25.8007 36.9484 25.4811 36.9484 24.6504C36.9481 23.8356 37.3635 23.4844 38.0824 23.4844ZM39.5043 29.6666C39.5043 30.737 38.9931 31.2642 38.0824 31.2642C37.2038 31.2642 36.6446 30.7689 36.6446 29.6666V29.3151C36.6446 28.2767 37.1878 27.7974 38.0824 27.7974C38.9771 27.7974 39.5043 28.2767 39.5043 29.3151V29.6666Z" fill="#2AC7D5"/>
<path d="M47.0443 23.6612C47.7951 23.6612 48.4342 23.9807 48.4342 24.5878C48.4342 25.3227 49.041 25.4985 49.7282 25.4985C50.527 25.4985 50.8942 25.2588 50.8942 24.492C50.8942 23.166 49.8238 21.4888 47.1242 21.4888C44.8236 21.4888 43.0503 22.511 43.0503 25.2588V29.4924C43.0503 32.24 44.7757 33.2625 46.9804 33.2625C49.1851 33.2625 50.8945 32.24 50.8945 29.4924V29.3486C50.8945 26.7925 49.3611 25.9937 47.5395 25.9937C46.7727 25.9937 46.0538 26.1375 45.5425 26.6966V25.2588C45.5425 24.1551 46.1017 23.6612 47.0443 23.6612ZM46.9644 27.9108C47.875 27.9108 48.4022 28.3581 48.4022 29.5241V29.6679C48.4022 30.7702 47.875 31.2495 46.9804 31.2495C46.0857 31.2495 45.5425 30.7702 45.5425 29.6679V29.3806C45.5425 28.3249 46.1017 27.9095 46.9644 27.9095V27.9108Z" fill="#2AC7D5"/>
<path d="M57.7163 26.7765C58.6588 26.457 59.2979 25.6582 59.2979 24.3322C59.2979 22.3352 57.8281 21.4888 55.7672 21.4888C53.7063 21.4888 52.2365 22.3355 52.2365 24.3322C52.2365 25.6582 52.8756 26.457 53.8181 26.7765C52.6359 27.1759 51.8374 28.1345 51.8374 29.7797V29.9714C51.8374 32.3518 53.5625 33.2625 55.7672 33.2625C57.9719 33.2625 59.6813 32.3518 59.6813 29.9714V29.7797C59.681 28.1345 58.8985 27.1759 57.7163 26.7765ZM55.7672 23.4858C56.4861 23.4858 56.9015 23.837 56.9015 24.6517C56.9015 25.4825 56.4861 25.802 55.7672 25.802C55.0483 25.802 54.6329 25.4825 54.6329 24.6517C54.6329 23.8356 55.0483 23.4844 55.7672 23.4844V23.4858ZM57.1891 29.6679C57.1891 30.7383 56.6778 31.2655 55.7672 31.2655C54.8885 31.2655 54.3294 30.7702 54.3294 29.6679V29.3164C54.3294 28.278 54.8725 27.7987 55.7672 27.7987C56.6618 27.7987 57.1891 28.278 57.1891 29.3164V29.6679Z" fill="#2AC7D5"/>
<path d="M66.5828 26.9989C67.3816 26.6314 67.8129 25.545 67.8129 24.3788C67.8129 22.2221 66.2795 21.4874 64.2505 21.4874C61.5027 21.4874 60.608 23.101 60.608 24.3468C60.608 25.1137 60.7518 25.3533 61.9021 25.3533C62.8287 25.3533 63.0683 24.9859 63.0683 24.4427C63.0683 23.8196 63.4677 23.6282 64.2505 23.6282C64.9056 23.6282 65.4328 23.8516 65.4328 24.7782C65.4328 26.0722 64.7937 26.1521 64.1866 26.1521C63.6435 26.1521 63.4677 26.6314 63.4677 27.1107C63.4677 27.59 63.6435 28.0692 64.1866 28.0692C65.0653 28.0692 65.7203 28.2769 65.7203 29.3473V29.6509C65.7203 30.6893 65.3369 31.0887 64.2505 31.0887C63.5316 31.0887 62.8287 30.9129 62.8287 30.1623C62.8287 29.555 62.5731 29.3316 61.5506 29.3316C60.6719 29.3316 60.3687 29.523 60.3687 30.242C60.3687 31.5839 61.4228 33.2614 64.1707 33.2614C66.4073 33.2614 68.2123 32.2709 68.2123 29.6511V29.3476C68.2426 28.8302 68.0985 28.3177 67.803 27.8919C67.5076 27.4661 67.078 27.1517 66.5828 26.9989Z" fill="#2AC7D5"/>
<path d="M76.5358 24.7942C76.5358 22.6534 74.6669 21.4874 72.8137 21.4874C70.9925 21.4874 69.2034 22.6057 69.2034 24.5545C69.2034 25.561 69.6827 25.8486 70.3217 25.8486C71.1365 25.8486 71.6318 25.4013 71.6318 24.938C71.6318 24.0593 72.1909 23.7398 72.83 23.7398C73.7246 23.7398 74.0441 24.3626 74.0441 24.8738C74.0441 26.9027 69.0117 28.3406 69.0117 30.8485V32.3982C69.0117 32.8615 69.6508 33.165 70.0983 33.165H75.7855C76.1849 33.165 76.5364 32.6378 76.5364 32.0627C76.5364 31.4876 76.1849 30.9923 75.7855 30.9923H71.5995V30.8485C71.5995 29.3952 76.5358 28.261 76.5358 24.7942Z" fill="#2AC7D5"/>
<path d="M74.6782 76.7316C74.6782 77.1553 74.8465 77.5617 75.1461 77.8613C75.4458 78.1609 75.8521 78.3292 76.2758 78.3292H118.792C119.216 78.3292 119.622 78.1609 119.922 77.8613C120.222 77.5617 120.39 77.1553 120.39 76.7316C120.39 76.3079 120.222 75.9016 119.922 75.602C119.622 75.3023 119.216 75.134 118.792 75.134H76.2758C75.8521 75.134 75.4458 75.3023 75.1461 75.602C74.8465 75.9016 74.6782 76.3079 74.6782 76.7316Z" fill="#2AC7D5"/>
<path d="M89.8036 88.4752H118.792C119.216 88.4752 119.622 88.3069 119.922 88.0073C120.221 87.7077 120.39 87.3013 120.39 86.8776C120.39 86.4539 120.221 86.0476 119.922 85.748C119.622 85.4483 119.216 85.28 118.792 85.28H89.8036C89.3799 85.28 88.9736 85.4483 88.674 85.748C88.3744 86.0476 88.2061 86.4539 88.2061 86.8776C88.2061 87.3013 88.3744 87.7077 88.674 88.0073C88.9736 88.3069 89.3799 88.4752 89.8036 88.4752Z" fill="#2AC7D5"/>
<path d="M89.8037 98.621H96.9534C97.3771 98.621 97.7835 98.4526 98.0831 98.153C98.3827 97.8534 98.551 97.4471 98.551 97.0234C98.551 96.5997 98.3827 96.1933 98.0831 95.8937C97.7835 95.5941 97.3771 95.4258 96.9534 95.4258H89.8037C89.3799 95.4258 88.9736 95.5941 88.674 95.8937C88.3744 96.1933 88.2061 96.5997 88.2061 97.0234C88.2061 97.4471 88.3744 97.8534 88.674 98.153C88.9736 98.4526 89.3799 98.621 89.8037 98.621Z" fill="#2AC7D5"/>
<path d="M76.2758 108.767H97.7275C98.1512 108.767 98.5576 108.599 98.8572 108.299C99.1568 108 99.3251 107.593 99.3251 107.17C99.3251 106.746 99.1568 106.34 98.8572 106.04C98.5576 105.74 98.1512 105.572 97.7275 105.572H76.2758C75.8521 105.572 75.4458 105.74 75.1461 106.04C74.8465 106.34 74.6782 106.746 74.6782 107.17C74.6782 107.593 74.8465 108 75.1461 108.299C75.4458 108.599 75.8521 108.767 76.2758 108.767Z" fill="#2AC7D5"/>
<path d="M103.332 115.718H76.2758C75.8521 115.718 75.4458 115.886 75.1461 116.186C74.8465 116.485 74.6782 116.892 74.6782 117.315C74.6782 117.739 74.8465 118.146 75.1461 118.445C75.4458 118.745 75.8521 118.913 76.2758 118.913H103.332C103.755 118.913 104.162 118.745 104.461 118.445C104.761 118.146 104.929 117.739 104.929 117.315C104.929 116.892 104.761 116.485 104.461 116.186C104.162 115.886 103.755 115.718 103.332 115.718Z" fill="#2AC7D5"/>
<path d="M79.89 97.7384C79.8812 97.7384 79.873 97.7384 79.8634 97.7384C79.8538 97.7384 79.8464 97.7384 79.8368 97.7384C79.3136 97.7312 78.8143 97.5185 78.4466 97.1462C78.0789 96.774 77.8725 96.272 77.8717 95.7488C77.8717 95.3251 77.7034 94.9188 77.4038 94.6192C77.1042 94.3196 76.6979 94.1512 76.2741 94.1512C75.8504 94.1512 75.4441 94.3196 75.1445 94.6192C74.8449 94.9188 74.6766 95.3251 74.6766 95.7488C74.678 96.8443 75.0258 97.9112 75.6703 98.7969C76.3148 99.6827 77.2229 100.342 78.2647 100.68V101.472C78.2647 101.896 78.4331 102.302 78.7327 102.602C79.0323 102.901 79.4386 103.07 79.8623 103.07C80.286 103.07 80.6924 102.901 80.992 102.602C81.2916 102.302 81.4599 101.896 81.4599 101.472V100.68C82.6354 100.3 83.6366 99.5131 84.2832 98.4604C84.9297 97.4076 85.1791 96.1586 84.9864 94.9384C84.7938 93.7181 84.1717 92.6067 83.2322 91.8044C82.2928 91.0021 81.0977 90.5616 79.8623 90.5623C79.4686 90.5622 79.0838 90.4454 78.7565 90.2266C78.4291 90.0079 78.174 89.6969 78.0234 89.3332C77.8728 88.9694 77.8334 88.5692 77.9103 88.183C77.9872 87.7969 78.1768 87.4423 78.4552 87.1639C78.7337 86.8856 79.0884 86.696 79.4745 86.6193C79.8607 86.5425 80.2609 86.582 80.6246 86.7327C80.9883 86.8834 81.2992 87.1386 81.5179 87.466C81.7365 87.7933 81.8532 88.1782 81.8532 88.5719C81.8532 88.9956 82.0215 89.402 82.3211 89.7016C82.6207 90.0012 83.0271 90.1695 83.4508 90.1695C83.8745 90.1695 84.2808 90.0012 84.5804 89.7016C84.88 89.402 85.0484 88.9956 85.0484 88.5719C85.0469 87.4765 84.6991 86.4095 84.0545 85.5238C83.41 84.638 82.5018 83.9788 81.4599 83.6404V83.0118C81.4599 82.5881 81.2916 82.1817 80.992 81.8821C80.6924 81.5825 80.286 81.4142 79.8623 81.4142C79.4386 81.4142 79.0323 81.5825 78.7327 81.8821C78.4331 82.1817 78.2647 82.5881 78.2647 83.0118V83.6404C77.0889 84.0201 76.0873 84.8073 75.4405 85.8601C74.7936 86.9129 74.5441 88.1621 74.7368 89.3826C74.9295 90.6032 75.5518 91.7147 76.4915 92.517C77.4313 93.3193 78.6267 93.7596 79.8623 93.7585C80.3869 93.7599 80.8898 93.9685 81.2615 94.3387C81.6332 94.7089 81.8436 95.2109 81.8472 95.7355C81.8507 96.2601 81.6469 96.7649 81.2802 97.1401C80.9135 97.5152 80.4135 97.7304 79.889 97.7389L79.89 97.7384Z" fill="#2AC7D5"/>
<path d="M110.893 94.6209C110.272 94.6213 109.653 94.6756 109.042 94.7834L109.003 94.6686C108.897 94.3506 108.694 94.0741 108.422 93.8782C108.15 93.6823 107.823 93.5769 107.488 93.5769C105.244 93.5773 103.093 94.4688 101.506 96.0554C99.9197 97.642 99.0284 99.7938 99.0283 102.037C99.0282 102.373 99.1336 102.7 99.3295 102.972C99.5255 103.244 99.802 103.447 100.12 103.553L100.364 103.635C100.029 105.786 100.36 107.989 101.315 109.947C102.269 111.904 103.8 113.522 105.702 114.583C107.604 115.644 109.786 116.097 111.953 115.88C114.12 115.663 116.168 114.788 117.823 113.372C119.477 111.955 120.658 110.066 121.206 107.958C121.754 105.85 121.643 103.625 120.888 101.583C120.133 99.54 118.77 97.7777 116.983 96.5331C115.195 95.2885 113.07 94.6213 110.892 94.6215L110.893 94.6209ZM102.34 100.924C102.555 99.9357 103.05 99.0296 103.765 98.314C104.481 97.5985 105.387 97.1036 106.376 96.8884L108.393 102.941L102.34 100.924ZM110.893 112.739C108.915 112.737 107.018 111.95 105.619 110.551C104.22 109.152 103.434 107.256 103.431 105.277C103.431 105.072 103.442 104.868 103.458 104.665L110.414 106.981C110.696 107.075 110.998 107.089 111.286 107.021C111.575 106.952 111.839 106.805 112.049 106.595C112.259 106.386 112.406 106.122 112.474 105.833C112.542 105.544 112.529 105.242 112.435 104.961L110.069 97.8654C111.078 97.7528 112.098 97.8471 113.069 98.1426C114.04 98.438 114.94 98.9284 115.715 99.5837C116.489 100.239 117.122 101.046 117.574 101.954C118.027 102.862 118.289 103.853 118.345 104.866C118.401 105.879 118.25 106.893 117.9 107.846C117.551 108.798 117.011 109.67 116.314 110.407C115.616 111.143 114.776 111.73 113.843 112.131C112.911 112.532 111.907 112.738 110.893 112.738L110.893 112.739Z" fill="#2AC7D5"/>
</svg>
