<svg width="137" height="138" viewBox="0 0 137 138" fill="none" xmlns="http://www.w3.org/2000/svg">
<path d="M111.41 101.081H97.8175C97.4751 101.081 97.1418 101.191 96.8666 101.394C96.5915 101.598 96.389 101.885 96.2892 102.212L95.1658 105.897C94.3468 105.581 93.5913 105.121 92.935 104.538L90.655 102.508C90.6222 102.479 90.5884 102.451 90.5535 102.425C88.0849 100.558 85.1476 99.4104 82.0671 99.1097C78.9865 98.8089 75.8827 99.3666 73.0996 100.721L72.1551 101.178C70.8935 101.786 69.5113 102.103 68.1108 102.104H61.3903L56.3645 99.3718C55.0239 98.6028 53.4861 98.2469 51.9439 98.3487C50.4018 98.4505 48.9241 99.0055 47.6962 99.944L47.0668 99.6048C47.0548 99.5984 47.0431 99.5923 47.0311 99.5864C44.7678 98.4393 41.8442 99.125 40.0052 101.044L39.9945 101.038C38.3854 100.167 36.5022 99.9502 34.7372 100.433C32.9722 100.916 31.4614 102.06 30.5194 103.629C30.3094 103.978 30.2405 104.394 30.3268 104.792C30.4131 105.19 30.6481 105.54 30.9838 105.77L54.7943 122.119C54.8567 122.162 54.922 122.2 54.9898 122.233C58.5108 123.967 62.494 124.529 66.3572 123.837L80.1204 121.303C80.1543 121.297 80.1875 121.289 80.2208 121.281C81.0784 121.064 81.9865 121.179 82.7626 121.604L89.1468 125.64L87.1001 132.354C87.0272 132.592 87.0114 132.845 87.0538 133.091C87.0962 133.337 87.1957 133.57 87.3443 133.77C87.4929 133.971 87.6864 134.134 87.9094 134.246C88.1323 134.359 88.3785 134.417 88.6282 134.417H107.734C108.124 134.417 108.501 134.274 108.793 134.016C109.085 133.757 109.273 133.4 109.32 133.013L112.996 102.872C113.023 102.647 113.002 102.42 112.935 102.204C112.868 101.988 112.756 101.789 112.606 101.619C112.456 101.45 112.272 101.315 112.066 101.222C111.859 101.129 111.636 101.081 111.41 101.081V101.081ZM54.7821 102.146L54.8199 102.167L55.8197 102.711C55.2908 102.924 54.785 103.19 54.31 103.505L51.0408 101.746C51.658 101.548 52.3099 101.482 52.9544 101.551C53.5989 101.62 54.2218 101.823 54.7829 102.148L54.7821 102.146ZM45.5714 102.426L51.9509 105.864C51.6869 106.261 51.4572 106.679 51.2642 107.115L43.0342 102.678C43.8479 102.193 44.8246 102.059 45.5714 102.429V102.426ZM84.43 118.878C84.406 118.862 84.3812 118.848 84.3562 118.834C82.8786 118.004 81.1412 117.766 79.495 118.168L65.7823 120.692C62.6331 121.256 59.3862 120.81 56.5059 119.418L34.2727 104.152C34.8716 103.706 35.5855 103.44 36.3303 103.387C37.0752 103.333 37.8198 103.493 38.4765 103.849L49.8053 109.96L50.5509 110.353C50.5509 110.406 50.5471 110.457 50.5471 110.51C50.5471 110.934 50.7155 111.34 51.0151 111.64C51.3147 111.939 51.721 112.108 52.1447 112.108C52.1687 112.108 52.1929 112.108 52.2172 112.106L60.0286 111.753C62.2817 111.651 64.5395 111.755 66.7736 112.064C66.9814 112.093 67.1929 112.08 67.3959 112.028C67.5989 111.975 67.7895 111.882 67.9568 111.756C68.1241 111.629 68.2649 111.471 68.371 111.29C68.4771 111.109 68.5465 110.909 68.5753 110.701C68.6041 110.493 68.5916 110.281 68.5387 110.078C68.4858 109.875 68.3933 109.685 68.2667 109.518C68.1401 109.35 67.9818 109.209 67.8008 109.103C67.6198 108.997 67.4197 108.928 67.2119 108.899C64.7847 108.564 62.332 108.45 59.8843 108.561L54.0216 108.827C54.3742 107.799 55.039 106.906 55.9231 106.274C56.8073 105.642 57.8667 105.301 58.9537 105.3H68.1116C69.9938 105.297 71.8514 104.872 73.5469 104.054L74.4913 103.598C76.7366 102.505 79.2394 102.053 81.7251 102.289C84.2108 102.526 86.5831 103.444 88.5816 104.94L90.8113 106.925C91.8126 107.814 92.9742 108.504 94.2339 108.958L90.1139 122.471L84.43 118.878ZM106.319 131.222H90.7854L99.0005 104.276H109.605L106.319 131.222Z" fill="#2AC7D5"/>
<path d="M40.7544 52.8407V49.9972H42.3142C43.2969 49.9979 44.2782 50.0721 45.2498 50.219L40.6466 56.496C37.446 60.8387 35.8064 66.1355 35.9938 71.527C36.1812 76.9186 38.1847 82.0887 41.6792 86.1987C44.3357 89.3438 47.6471 91.8707 51.3819 93.6029C55.1166 95.335 59.1846 96.2306 63.3015 96.227C67.4184 96.2305 71.4863 95.3348 75.2211 93.6027C78.9558 91.8705 82.2672 89.3437 84.9238 86.1987C88.4182 82.0886 90.4216 76.9185 90.6091 71.527C90.7965 66.1355 89.157 60.8388 85.9564 56.496L81.3093 50.1588C81.3093 50.1197 81.3151 50.0819 81.3151 50.0428C81.3158 48.9847 81.0038 47.9501 80.4184 47.0688C81.132 46.6474 81.7391 46.0675 82.1928 45.374C82.6466 44.6805 82.9348 43.892 83.0352 43.0693C83.1355 42.2467 83.0454 41.4119 82.7717 40.6297C82.498 39.8474 82.0481 39.1386 81.4568 38.5579C82.4818 37.5328 83.0626 36.1457 83.0738 34.696C83.085 33.2464 82.5257 31.8505 81.5167 30.8096C82.1622 30.1795 82.6314 29.3914 82.8777 28.5236C83.124 27.6559 83.1388 26.7387 82.9206 25.8635C82.7023 24.9882 82.2587 24.1854 81.6338 23.5349C81.009 22.8843 80.2246 22.4087 79.3589 22.1554C81.9334 20.756 83.5068 17.7972 83.5068 13.9398V13.7934C83.5068 13.3697 83.3385 12.9633 83.0389 12.6637C82.7392 12.3641 82.3329 12.1958 81.9092 12.1958H76.8161C77.5035 10.5072 78.303 8.86649 79.2093 7.28452C79.4194 6.9175 79.5299 6.50191 79.5298 6.079C79.5297 5.6561 79.419 5.24056 79.2087 4.87363C78.9984 4.5067 78.6959 4.20113 78.3311 3.98723C77.9662 3.77333 77.5518 3.65855 77.1289 3.65426L55.9292 3.43113C55.5892 3.42224 55.2511 3.48468 54.9367 3.61442C54.6224 3.74416 54.3387 3.93832 54.1039 4.18439C53.75 4.56631 53.5321 5.05434 53.484 5.57276C53.4358 6.09118 53.5602 6.611 53.8376 7.05154L54.8377 8.63875C55.5554 9.7835 56.2013 10.9717 56.7716 12.1966H55.395C49.7633 12.1966 48.3728 16.3714 47.6257 18.6136C47.5085 18.9977 47.3682 19.3743 47.2055 19.7415C45.5448 20.7576 44.0306 21.2517 42.5805 21.2517H40.7544V17.8308C40.7544 17.4071 40.5861 17.0007 40.2865 16.7011C39.9869 16.4015 39.5806 16.2332 39.1568 16.2332H25.4745C25.0508 16.2332 24.6445 16.4015 24.3449 16.7011C24.0453 17.0007 23.877 17.4071 23.877 17.8308V52.8407C23.877 53.2644 24.0453 53.6707 24.3449 53.9703C24.6445 54.27 25.0508 54.4383 25.4745 54.4383H39.1568C39.5806 54.4383 39.9869 54.27 40.2865 53.9703C40.5861 53.6707 40.7544 53.2644 40.7544 52.8407ZM83.3795 58.3857C86.1538 62.1503 87.5749 66.7417 87.4124 71.4154C87.2499 76.089 85.5134 80.5707 82.4843 84.1335C80.1253 86.9214 77.1871 89.1616 73.8741 90.6982C70.5611 92.2347 66.953 93.0307 63.301 93.0307C59.649 93.0307 56.0409 92.2347 52.7279 90.6982C49.4149 89.1616 46.4766 86.9214 44.1176 84.1335C41.0885 80.5707 39.352 76.089 39.1895 71.4153C39.0271 66.7417 40.4483 62.1502 43.2227 58.3857L48.6141 51.0338C49.9728 51.4926 51.2774 52.0983 52.5047 52.8401C48.5728 56.1605 48.8018 61.3122 49.6038 63.8518C49.733 64.2538 50.0161 64.5883 50.3913 64.7821C50.7664 64.9759 51.203 65.0134 51.6057 64.8863C52.0083 64.7591 52.3443 64.4777 52.5401 64.1036C52.7359 63.7295 52.7756 63.2931 52.6506 62.8898C52.3631 61.8082 52.2717 60.6838 52.3809 59.57C52.4632 58.4826 52.8272 57.4353 53.4372 56.5313C54.0472 55.6274 54.8821 54.8978 55.8597 54.4146C58.6922 55.3422 61.6994 55.4466 64.7745 55.4466H68.4971L68.8774 56.1328C70.3043 58.7043 70.9591 61.6329 70.7631 64.5673L70.7308 65.0564C70.717 65.2657 70.7445 65.4758 70.8118 65.6745C70.8792 65.8732 70.9849 66.0567 71.1232 66.2145C71.2614 66.3723 71.4294 66.5014 71.6175 66.5943C71.8056 66.6872 72.0102 66.7421 72.2195 66.756C72.2552 66.7584 72.2909 66.7594 72.326 66.7594C72.731 66.7591 73.1208 66.6049 73.4164 66.328C73.7121 66.0512 73.8916 65.6725 73.9186 65.2683L73.951 64.7792C74.1609 61.6284 73.5592 58.4765 72.2036 55.6245C73.1262 55.976 75.9225 57.4985 76.4521 63.1231C76.4893 63.5188 76.6727 63.8865 76.9665 64.1542C77.2603 64.422 77.6434 64.5706 78.0409 64.571C78.0909 64.571 78.1418 64.5686 78.1927 64.5638C78.6145 64.5241 79.0033 64.3184 79.2735 63.992C79.5437 63.6657 79.6731 63.2453 79.6334 62.8235C79.2979 59.2622 78.1911 56.9049 76.9441 55.346C78.0902 55.1198 79.1323 54.5287 79.9146 53.661L83.3795 58.3857ZM80.2022 15.391C79.9196 17.2527 78.9451 19.8501 75.7084 19.8501H74.5454C74.8362 18.3438 75.2114 16.855 75.6693 15.3907H80.2022V15.391ZM58.6475 6.65427C58.7058 6.68811 58.7662 6.71826 58.8283 6.74454C61.3487 7.78936 63.3747 11.0548 63.0086 13.4741C62.9699 13.7034 62.9816 13.9383 63.0431 14.1626C63.1045 14.3868 63.2142 14.595 63.3644 14.7724C63.5146 14.9499 63.7017 15.0925 63.9127 15.1902C64.1237 15.2878 64.3535 15.3383 64.586 15.338C64.9665 15.3375 65.3344 15.2012 65.6233 14.9536C65.9123 14.706 66.1034 14.3634 66.1623 13.9875C66.5441 11.5517 65.5956 8.81582 63.8724 6.70859L68.9221 6.76184C68.384 8.32615 67.9122 10.5143 68.3206 12.7818C68.3869 13.1503 68.5806 13.4838 68.8677 13.724C69.1548 13.9643 69.5172 14.0961 69.8916 14.0964C70.0506 14.0962 70.2088 14.0726 70.361 14.0264C70.738 13.9017 71.0569 13.6444 71.2585 13.3023C71.4601 12.9603 71.5307 12.5567 71.4572 12.1665C71.0903 10.0324 71.855 7.88282 72.3396 6.79779L75.8056 6.83427C73.4525 11.2329 71.8654 15.9999 71.1121 20.9312L70.9367 22.0716L64.0803 22.1988C63.9118 22.1841 63.748 22.1357 63.5986 22.0564C63.4492 21.977 63.3173 21.8685 63.2107 21.7371C62.2493 16.3745 60.2607 11.2481 57.3545 6.63989L58.6475 6.65427ZM40.7544 24.4467H42.5805C44.684 24.4467 46.7947 23.7674 49.0294 22.3698C49.9297 21.8072 50.2668 20.7948 50.6574 19.6227C51.4828 17.1449 52.3056 15.3907 55.395 15.3907H58.095C58.6666 16.9617 59.1462 18.5707 59.5607 20.2V20.9096C59.5607 20.9675 59.5639 21.0254 59.5703 21.0829C59.8297 23.4601 61.8581 25.3943 64.0918 25.3943H64.1213L77.9139 25.1382C78.4386 25.1398 78.9411 25.3499 79.3109 25.7221C79.6807 26.0943 79.8875 26.5982 79.8858 27.1229C79.8841 27.6476 79.6741 28.1501 79.3019 28.5199C78.9297 28.8897 78.4258 29.0966 77.9011 29.0949L72.2709 29.1122C71.8472 29.1122 71.4409 29.2805 71.1413 29.5801C70.8416 29.8797 70.6733 30.2861 70.6733 30.7098C70.6733 31.1335 70.8416 31.5398 71.1413 31.8394C71.4409 32.139 71.8472 32.3074 72.2709 32.3074H77.5355C78.1571 32.3074 78.7533 32.5543 79.1928 32.9938C79.6324 33.4334 79.8793 34.0295 79.8793 34.6512C79.8793 35.2728 79.6324 35.8689 79.1928 36.3085C78.7533 36.748 78.1571 36.995 77.5355 36.995H72.2723C71.8485 36.995 71.4422 37.1633 71.1426 37.4629C70.843 37.7625 70.6747 38.1688 70.6747 38.5925C70.6747 39.0163 70.843 39.4226 71.1426 39.7222C71.4422 40.0218 71.8485 40.1901 72.2723 40.1901H77.6548C78.2406 40.1965 78.8003 40.4338 79.2123 40.8503C79.6243 41.2668 79.8554 41.8291 79.8554 42.4149C79.8554 43.0008 79.6243 43.563 79.2123 43.9795C78.8003 44.3961 78.2406 44.6333 77.6548 44.6397H69.8932C69.4695 44.6397 69.0631 44.808 68.7635 45.1076C68.4639 45.4072 68.2956 45.8136 68.2956 46.2373C68.2956 46.661 68.4639 47.0674 68.7635 47.367C69.0631 47.6666 69.4695 47.8349 69.8932 47.8349H75.9108C76.4923 47.8413 77.0479 48.0768 77.4568 48.4903C77.8658 48.9037 78.0952 49.4618 78.0952 50.0434C78.0952 50.625 77.8658 51.1831 77.4568 51.5966C77.0479 52.0101 76.4923 52.2456 75.9108 52.252H64.7745C60.8631 52.252 57.3816 52.1007 54.3864 50.2425C50.7617 47.9927 46.5803 46.8011 42.3142 46.802H40.7544V24.4467ZM37.5593 51.2431H27.0721V19.4284H37.5593V51.2431Z" fill="#2AC7D5"/>
<path d="M64.0932 71.7506C64.6285 71.7511 65.1416 71.9639 65.5201 72.3423C65.8986 72.7208 66.1115 73.2339 66.1121 73.7691C66.1121 74.1928 66.2804 74.5992 66.58 74.8988C66.8796 75.1984 67.286 75.3667 67.7097 75.3667C68.1334 75.3667 68.5397 75.1984 68.8393 74.8988C69.1389 74.5992 69.3073 74.1928 69.3073 73.7691C69.3054 72.6664 68.9545 71.5927 68.3049 70.7017C67.6552 69.8107 66.7401 69.1483 65.6908 68.8094V68.1672C65.6908 67.7435 65.5225 67.3371 65.2229 67.0375C64.9233 66.7379 64.5169 66.5696 64.0932 66.5696C63.6695 66.5696 63.2632 66.7379 62.9636 67.0375C62.664 67.3371 62.4956 67.7435 62.4956 68.1672V68.8094C61.3126 69.1898 60.3045 69.9804 59.6529 71.0385C59.0013 72.0966 58.7491 73.3527 58.9419 74.5803C59.1346 75.8079 59.7596 76.9263 60.7041 77.7338C61.6486 78.5413 62.8506 78.9849 64.0932 78.9845C64.3583 78.9827 64.621 79.0332 64.8665 79.133C65.112 79.2328 65.3355 79.38 65.5241 79.5661C65.7127 79.7523 65.8628 79.9737 65.9659 80.2179C66.0689 80.4621 66.1228 80.7242 66.1246 80.9892C66.1263 81.2542 66.0759 81.5169 65.9761 81.7624C65.8763 82.0079 65.7291 82.2314 65.5429 82.42C65.3568 82.6086 65.1353 82.7588 64.8911 82.8618C64.647 82.9648 64.3849 83.0187 64.1199 83.0205C64.1111 83.0205 64.1028 83.0205 64.0932 83.0205C64.0837 83.0205 64.0765 83.0205 64.0666 83.0205C63.536 83.0133 63.0296 82.7977 62.6567 82.4202C62.2838 82.0427 62.0743 81.5336 62.0736 81.003C62.0736 80.5793 61.9053 80.173 61.6057 79.8733C61.3061 79.5737 60.8997 79.4054 60.476 79.4054C60.0523 79.4054 59.6459 79.5737 59.3463 79.8733C59.0467 80.173 58.8784 80.5793 58.8784 81.003C58.88 82.1059 59.2307 83.18 59.8803 84.0712C60.53 84.9625 61.4451 85.6252 62.4946 85.9643V86.7708C62.4946 87.1946 62.6629 87.6009 62.9625 87.9005C63.2621 88.2001 63.6685 88.3684 64.0922 88.3684C64.5159 88.3684 64.9222 88.2001 65.2218 87.9005C65.5215 87.6009 65.6898 87.1946 65.6898 86.7708V85.9643C66.8728 85.5839 67.8809 84.7934 68.5325 83.7352C69.1841 82.6771 69.4363 81.421 69.2435 80.1934C69.0508 78.9658 68.4258 77.8474 67.4813 77.0399C66.5368 76.2324 65.3348 75.7889 64.0922 75.7893C63.5608 75.7832 63.0533 75.5678 62.6797 75.1899C62.3061 74.812 62.0965 74.302 62.0965 73.7706C62.0965 73.2392 62.3061 72.7292 62.6797 72.3513C63.0533 71.9734 63.5608 71.758 64.0922 71.7519L64.0932 71.7506Z" fill="#2AC7D5"/>
</svg>
