<svg width="137" height="138" viewBox="0 0 137 138" fill="none" xmlns="http://www.w3.org/2000/svg">
<path d="M27.8212 87.8434H40.9942C41.4179 87.8434 41.8243 87.6751 42.1239 87.3755C42.4235 87.0759 42.5918 86.6695 42.5918 86.2458V40.1403C42.5918 39.7166 42.4235 39.3103 42.1239 39.0106C41.8243 38.711 41.4179 38.5427 40.9942 38.5427H27.8212C27.3975 38.5427 26.9912 38.711 26.6916 39.0106C26.392 39.3103 26.2236 39.7166 26.2236 40.1403V86.2458C26.2236 86.6695 26.392 87.0759 26.6916 87.3755C26.9912 87.6751 27.3975 87.8434 27.8212 87.8434ZM29.4188 41.7379H39.3966V84.6482H29.4188V41.7379Z" fill="#2AC7D5"/>
<path d="M20.302 86.2457V51.1176C20.302 50.6939 20.1337 50.2875 19.8341 49.9879C19.5345 49.6883 19.1281 49.52 18.7044 49.52H5.53119C5.10748 49.52 4.70112 49.6883 4.40152 49.9879C4.10191 50.2875 3.93359 50.6939 3.93359 51.1176V86.2457C3.93359 86.6694 4.10191 87.0758 4.40152 87.3754C4.70112 87.675 5.10748 87.8433 5.53119 87.8433H18.7044C19.1281 87.8433 19.5345 87.675 19.8341 87.3754C20.1337 87.0758 20.302 86.6694 20.302 86.2457ZM17.1068 84.6481H7.12878V52.7152H17.1068V84.6481Z" fill="#2AC7D5"/>
<path d="M131.943 122.007L113.93 103.994L109.173 99.2367C108.873 98.9372 108.467 98.769 108.043 98.769C107.62 98.769 107.213 98.9372 106.914 99.2367L103.286 102.865L101.187 100.766C104.856 96.7281 107.457 91.8368 108.752 86.537C110.048 81.2373 109.996 75.6977 108.603 70.4228C107.21 65.148 104.519 60.3055 100.776 56.3365C97.0329 52.3675 92.356 49.3982 87.1717 47.699V5.01214C87.1717 4.58843 87.0033 4.18208 86.7037 3.88247C86.4041 3.58287 85.9978 3.41455 85.5741 3.41455H72.4011C71.9774 3.41455 71.5711 3.58287 71.2715 3.88247C70.9719 4.18208 70.8035 4.58843 70.8035 5.01214V46.6147C68.7799 46.9975 66.7971 47.5709 64.8815 48.3274V26.9673C64.8815 26.5436 64.7132 26.1372 64.4136 25.8376C64.114 25.538 63.7076 25.3697 63.2839 25.3697H50.1113C49.6876 25.3697 49.2812 25.538 48.9816 25.8376C48.682 26.1372 48.5137 26.5436 48.5137 26.9673V62.5284C44.6536 69.2939 43.332 77.2139 44.7861 84.8662C46.2403 92.5185 50.3749 99.4017 56.4476 104.28C62.5203 109.158 70.1331 111.711 77.9189 111.481C85.7048 111.251 93.1535 108.252 98.9275 103.024L101.027 105.123L97.3989 108.752C97.0993 109.051 96.931 109.458 96.931 109.881C96.931 110.305 97.0993 110.711 97.3989 111.011L102.156 115.768L120.169 133.781C120.39 134.002 120.671 134.153 120.977 134.216C122.542 134.537 124.162 134.464 125.692 134.004C127.222 133.545 128.614 132.713 129.744 131.583C130.873 130.454 131.705 129.061 132.165 127.531C132.624 126.001 132.697 124.381 132.377 122.816C132.315 122.51 132.164 122.228 131.943 122.007ZM83.9765 6.60973V46.8246C80.7036 46.0974 77.3385 45.877 73.9987 46.1709V6.60973H83.9765ZM51.7089 28.5649H61.6863V49.798C58.7756 51.3334 56.1128 53.2985 53.7876 55.6273C53.0513 56.3633 52.3584 57.1253 51.7089 57.9134V28.5649ZM97.826 99.6638C94.5197 102.97 90.4759 105.443 86.0273 106.882C81.5786 108.32 76.8521 108.682 72.2363 107.938C67.6205 107.194 63.2472 105.365 59.476 102.601C55.7049 99.8373 52.6435 96.218 50.5436 92.0407C48.4438 87.8633 47.3654 83.2473 47.3971 78.572C47.4288 73.8967 48.5698 69.2956 50.7261 65.1472C52.8825 60.9987 55.9927 57.4213 59.801 54.7091C63.6093 51.9969 68.007 50.2273 72.6325 49.5458C74.086 49.3325 75.5531 49.2252 77.0222 49.2247C80.8901 49.2213 84.7204 49.9851 88.2912 51.4716C91.8621 52.9582 95.1028 55.1381 97.8257 57.8852C103.358 63.4298 106.465 70.9422 106.465 78.7745C106.465 86.6067 103.358 94.1192 97.826 99.6638ZM100.788 109.881L108.043 102.625L110.542 105.123L103.286 112.379L100.788 109.881ZM127.486 129.324C126.789 130.032 125.937 130.568 124.996 130.887C124.055 131.206 123.053 131.301 122.069 131.162L105.545 114.639L108.043 112.14L123.305 127.403C123.606 127.698 124.011 127.863 124.432 127.861C124.854 127.859 125.257 127.691 125.555 127.393C125.853 127.095 126.021 126.691 126.023 126.27C126.025 125.848 125.86 125.443 125.564 125.143L110.303 109.881L112.801 107.383L129.325 123.907C129.463 124.891 129.369 125.893 129.049 126.834C128.73 127.775 128.194 128.627 127.486 129.324Z" fill="#2AC7D5"/>
<path d="M81.3245 97.8645C77.2341 98.9248 72.9084 98.6102 69.0143 96.9693C65.1203 95.3285 61.874 92.4524 59.7758 88.7845C57.6777 85.1165 56.8441 80.8603 57.4037 76.6718C57.9633 72.4834 59.8849 68.5952 62.8724 65.6067C63.0998 65.3798 63.3346 65.157 63.5703 64.9429V67.3105C63.5703 67.7342 63.7386 68.1406 64.0382 68.4402C64.3378 68.7398 64.7441 68.9081 65.1678 68.9081C65.5916 68.9081 65.9979 68.7398 66.2975 68.4402C66.5971 68.1406 66.7654 67.7342 66.7654 67.3105V61.0533C66.7654 60.6296 66.5971 60.2232 66.2975 59.9236C65.9979 59.624 65.5916 59.4557 65.1678 59.4557H58.9106C58.4869 59.4557 58.0806 59.624 57.781 59.9236C57.4813 60.2232 57.313 60.6296 57.313 61.0533C57.313 61.477 57.4813 61.8833 57.781 62.183C58.0806 62.4826 58.4869 62.6509 58.9106 62.6509H61.3411C61.0948 62.8767 60.8498 63.1089 60.6126 63.3461C57.1379 66.833 54.9049 71.3647 54.2567 76.2443C53.6085 81.124 54.5811 86.0815 57.0249 90.3546C59.4688 94.6276 63.2486 97.9796 67.7831 99.8952C72.3177 101.811 77.3559 102.184 82.1231 100.957C82.3285 100.907 82.5218 100.816 82.6919 100.69C82.862 100.565 83.0055 100.407 83.114 100.225C83.2225 100.044 83.2939 99.8424 83.3241 99.6331C83.3542 99.4238 83.3426 99.2106 83.2897 99.0058C83.2368 98.8011 83.1438 98.6089 83.0161 98.4403C82.8884 98.2718 82.7285 98.1303 82.5456 98.024C82.3628 97.9178 82.1607 97.8488 81.9511 97.8213C81.7414 97.7937 81.5284 97.8081 81.3243 97.8635L81.3245 97.8645Z" fill="#2AC7D5"/>
<path d="M97.1728 92.4087H94.8704C97.7354 88.8513 99.4471 84.5047 99.7773 79.9491C100.107 75.3934 99.0403 70.8455 96.7183 66.9122C94.3962 62.9789 90.9298 59.8473 86.7815 57.9355C82.6333 56.0237 78.0007 55.4226 73.5019 56.2123C73.2952 56.2484 73.0977 56.3249 72.9206 56.4373C72.7434 56.5498 72.5902 56.696 72.4696 56.8677C72.226 57.2144 72.1301 57.6436 72.203 58.061C72.2391 58.2677 72.3156 58.4652 72.428 58.6423C72.5405 58.8195 72.6867 58.9727 72.8584 59.0933C73.2051 59.3369 73.6343 59.4328 74.0517 59.3599C77.8921 58.6853 81.8467 59.1926 85.3925 60.8145C88.9383 62.4365 91.9082 65.0967 93.9092 68.4432C95.9103 71.7897 96.8482 75.6649 96.5989 79.5561C96.3496 83.4472 94.9249 87.1711 92.5132 90.2349V87.7504C92.5132 87.3267 92.3449 86.9203 92.0453 86.6207C91.7457 86.3211 91.3393 86.1528 90.9156 86.1528C90.4919 86.1528 90.0856 86.3211 89.7859 86.6207C89.4863 86.9203 89.318 87.3267 89.318 87.7504V94.0076C89.318 94.4313 89.4863 94.8377 89.7859 95.1373C90.0856 95.4369 90.4919 95.6052 90.9156 95.6052H97.1728C97.5965 95.6052 98.0029 95.4369 98.3025 95.1373C98.6021 94.8377 98.7704 94.4313 98.7704 94.0076C98.7704 93.5839 98.6021 93.1775 98.3025 92.8779C98.0029 92.5783 97.5965 92.41 97.1728 92.41V92.4087Z" fill="#2AC7D5"/>
<path d="M77.1002 85.166C77.0909 85.166 77.0816 85.166 77.072 85.166C77.0624 85.166 77.0534 85.166 77.0438 85.166C76.4232 85.1581 75.8306 84.9063 75.3943 84.4649C74.958 84.0235 74.7129 83.4281 74.7121 82.8075C74.7121 82.3837 74.5438 81.9774 74.2442 81.6778C73.9446 81.3782 73.5382 81.2099 73.1145 81.2099C72.6908 81.2099 72.2845 81.3782 71.9849 81.6778C71.6853 81.9774 71.5169 82.3837 71.5169 82.8075C71.5189 84.0012 71.9046 85.1627 72.6173 86.1204C73.3299 87.0781 74.3316 87.7813 75.4744 88.1261V89.1198C75.4744 89.5435 75.6427 89.9499 75.9423 90.2495C76.242 90.5491 76.6483 90.7174 77.072 90.7174C77.4957 90.7174 77.9021 90.5491 78.2017 90.2495C78.5013 89.9499 78.6696 89.5435 78.6696 89.1198V88.1261C79.9469 87.7431 81.0438 86.9132 81.7598 85.7882C82.4758 84.6632 82.7631 83.3182 82.5693 81.9988C82.3755 80.6794 81.7134 79.4739 80.7041 78.6023C79.6947 77.7308 78.4055 77.2516 77.072 77.2521C76.6052 77.252 76.1489 77.1136 75.7608 76.8542C75.3727 76.5948 75.0703 76.2262 74.8917 75.7949C74.7131 75.3637 74.6664 74.8891 74.7575 74.4313C74.8486 73.9735 75.0734 73.553 75.4035 73.2229C75.7336 72.8929 76.1541 72.6681 76.6119 72.5771C77.0698 72.486 77.5443 72.5328 77.9755 72.7114C78.4068 72.8901 78.7754 73.1926 79.0347 73.5807C79.294 73.9688 79.4324 74.4251 79.4324 74.8919C79.4324 75.3156 79.6008 75.722 79.9004 76.0216C80.2 76.3212 80.6063 76.4895 81.03 76.4895C81.4537 76.4895 81.8601 76.3212 82.1597 76.0216C82.4593 75.722 82.6276 75.3156 82.6276 74.8919C82.6259 73.6981 82.2401 72.5365 81.5274 71.5787C80.8146 70.621 79.8127 69.918 78.6696 69.5735V68.7598C78.6696 68.3361 78.5013 67.9298 78.2017 67.6302C77.9021 67.3305 77.4957 67.1622 77.072 67.1622C76.6483 67.1622 76.242 67.3305 75.9423 67.6302C75.6427 67.9298 75.4744 68.3361 75.4744 68.7598V69.5735C74.1973 69.9567 73.1007 70.7866 72.3848 71.9115C71.669 73.0365 71.3818 74.3814 71.5756 75.7006C71.7694 77.0198 72.4314 78.2253 73.4405 79.0968C74.4497 79.9683 75.7386 80.4476 77.072 80.4473C77.6978 80.4435 78.2994 80.6885 78.7445 81.1283C79.1896 81.5682 79.4417 82.1668 79.4455 82.7925C79.4492 83.4183 79.2042 84.0199 78.7644 84.465C78.3246 84.9101 77.726 85.1623 77.1002 85.166Z" fill="#2AC7D5"/>
</svg>
