<svg width="137" height="137" viewBox="0 0 137 137" fill="none" xmlns="http://www.w3.org/2000/svg">
<path d="M101.598 32.8752C99.742 31.0231 97.391 29.7457 94.8271 29.1961C92.2633 28.6464 89.5952 28.8478 87.1429 29.7761C81.0338 26.7514 74.3095 25.176 67.4925 25.1724C43.1205 25.1724 23.2925 45.0003 23.2925 69.3724C23.2925 93.7445 43.1205 113.572 67.4925 113.572C91.8646 113.572 111.693 93.7445 111.693 69.3724C111.7 61.1635 109.414 53.1157 105.091 46.137C105.734 43.8151 105.749 41.3643 105.135 39.0345C104.522 36.7048 103.301 34.5794 101.598 32.8752ZM59.3896 29.1741C53.5016 33.5792 48.8705 39.6915 45.8087 47.0426C42.9831 45.3038 40.3837 43.2217 38.0699 40.8439C43.8326 34.8871 51.2663 30.8178 59.3896 29.1733V29.1741ZM35.9316 43.2244C38.5351 45.8739 41.468 48.1782 44.6584 50.0807C43.5915 53.2094 42.8053 56.4269 42.3089 59.695C40.1319 59.8821 38.0746 60.7711 36.4465 62.2282C34.8183 63.6854 33.7074 65.6319 33.2809 67.7748H26.5217C26.8641 58.7771 30.1724 50.1453 35.9313 43.2236L35.9316 43.2244ZM48.0589 64.8717C49.1379 65.9514 49.8286 67.3583 50.0231 68.8723C50.2176 70.3863 49.9049 71.922 49.1338 73.2394L43.179 83.4046L37.2246 73.2399C36.3766 71.7921 36.0851 70.0849 36.4047 68.4377C36.7243 66.7906 37.6331 65.3163 38.9611 64.2907C40.289 63.2651 41.9451 62.7584 43.6196 62.8655C45.2941 62.9726 46.8722 63.6861 48.0586 64.8725L48.0589 64.8717ZM35.9313 95.5213C30.1724 88.5996 26.8641 79.9677 26.5217 70.97H33.1579C33.3235 72.3407 33.7695 73.6627 34.4679 74.8538L41.8006 87.372C41.9249 87.5845 42.0966 87.7653 42.3025 87.9004C42.5083 88.0355 42.7426 88.1211 42.987 88.1505C43.2314 88.1799 43.4793 88.1524 43.7113 88.07C43.9433 87.9877 44.1531 87.8527 44.3243 87.6758C44.4308 88.0088 44.5406 88.3395 44.6539 88.6679C41.4652 90.5699 38.5337 92.8731 35.9313 95.5213ZM38.0699 97.9017C40.3819 95.5258 42.9789 93.4452 45.8018 91.707C48.8686 99.0855 53.5016 105.178 59.3778 109.569C51.2592 107.923 43.8302 103.855 38.0702 97.9017H38.0699ZM65.895 109.921C58.1762 105.849 52.2033 98.9777 48.6071 90.1278C53.9739 87.3893 59.874 85.856 65.895 85.6351V109.921ZM65.895 82.4375C59.4989 82.6564 53.2249 84.2498 47.4995 87.1094C47.1581 86.0756 46.848 85.0183 46.5691 83.9374L51.8894 74.8538C52.5879 73.6627 53.034 72.3408 53.1999 70.97H65.895V82.4375ZM65.895 67.7748H53.0769C52.6993 65.8787 51.785 64.131 50.4428 62.7394C49.1006 61.3479 47.3869 60.3711 45.5057 59.9253C45.9459 57.1132 46.6138 54.3415 47.5027 51.6375C53.2273 54.4959 59.5001 56.0885 65.895 56.3073V67.7748ZM65.895 53.1097C59.8776 52.8889 53.9809 51.3573 48.6167 48.6218C52.2049 39.8122 58.1645 32.9034 65.895 28.8226V53.1097ZM91.9698 32.0873C93.8046 32.0859 95.6072 32.5693 97.1951 33.4885C98.7831 34.4077 100.1 35.7301 101.013 37.3218C101.925 38.9135 102.401 40.7181 102.392 42.5529C102.383 44.3877 101.89 46.1875 100.962 47.7703L91.9701 63.1205L82.9777 47.7703C82.0497 46.1875 81.5562 44.3877 81.5473 42.5529C81.5384 40.7181 82.0143 38.9135 82.9269 37.3218C83.8396 35.7301 85.1565 34.4077 86.7445 33.4885C88.3324 32.5693 90.135 32.0859 91.9698 32.0873ZM83.6943 31.6945C82.7422 32.4201 81.8915 33.2697 81.1647 34.2209C79.4806 32.361 77.6206 30.6683 75.6107 29.1663C78.3867 29.723 81.0962 30.5709 83.6943 31.6959V31.6945ZM69.0901 28.8234C73.0413 30.9092 76.5611 33.7251 79.4633 37.1221C78.6199 39.0826 78.2491 41.2139 78.3807 43.3441C78.5123 45.4743 79.1427 47.5437 80.2211 49.3855L81.0774 50.8473C77.2181 52.1999 73.1769 52.9629 69.0901 53.1105V28.8234ZM69.0901 56.3078C73.7456 56.1517 78.3464 55.2547 82.7195 53.6505L90.169 66.3673L90.1374 66.3689C90.1595 66.8338 90.1754 67.3038 90.1874 67.7748H69.0901V56.3078ZM69.0901 70.97H90.1866C90.0854 76.4801 89.1708 81.945 87.4723 87.1877C81.7633 84.2863 75.4901 82.6655 69.0901 82.4383V70.97ZM69.0901 85.6356C75.1135 85.8651 81.0114 87.4256 86.3601 90.205C82.7951 98.9385 76.8723 105.82 69.0901 109.923V85.6356ZM75.6136 109.568C81.5146 105.165 86.1191 99.0892 89.1623 91.8082C91.9542 93.5566 94.5216 95.6401 96.8073 98.0122C91.0635 103.905 83.6783 107.932 75.6136 109.568ZM98.955 95.6376C96.3786 92.9924 93.4765 90.6854 90.3184 88.772C92.2475 83.0305 93.2807 77.0261 93.3815 70.97H108.463C108.119 80.0197 104.774 88.6977 98.9553 95.6376H98.955ZM108.465 67.7748H93.3845C93.3789 67.5386 93.3674 67.3054 93.3592 67.0703L103.506 49.7487C106.53 55.2932 108.227 61.4635 108.465 67.7748Z" fill="#2AC7D5"/>
<path d="M91.9698 49.4059C93.339 49.4059 94.6775 48.9999 95.8159 48.2392C96.9544 47.4785 97.8417 46.3972 98.3657 45.1323C98.8897 43.8673 99.0268 42.4753 98.7596 41.1324C98.4925 39.7895 97.8332 38.5559 96.865 37.5877C95.8968 36.6195 94.6633 35.9602 93.3204 35.6931C91.9774 35.426 90.5855 35.5631 89.3205 36.087C88.0555 36.611 86.9743 37.4983 86.2136 38.6368C85.4529 39.7753 85.0469 41.1137 85.0469 42.483C85.0489 44.3184 85.779 46.0781 87.0768 47.3759C88.3747 48.6738 90.1343 49.4038 91.9698 49.4059ZM91.9698 38.7552C92.707 38.7552 93.4278 38.9739 94.0408 39.3835C94.6538 39.7931 95.1316 40.3753 95.4137 41.0564C95.6959 41.7376 95.7697 42.4871 95.6259 43.2102C95.482 43.9333 95.127 44.5975 94.6057 45.1189C94.0843 45.6402 93.4201 45.9952 92.697 46.1391C91.9739 46.2829 91.2244 46.2091 90.5432 45.9269C89.8621 45.6448 89.2799 45.167 88.8703 44.554C88.4607 43.941 88.2421 43.2202 88.2421 42.483C88.2432 41.4947 88.6363 40.5472 89.3351 39.8483C90.034 39.1495 90.9815 38.7564 91.9698 38.7552Z" fill="#2AC7D5"/>
<path d="M43.179 75.0995C44.2398 75.0995 45.2767 74.785 46.1586 74.1957C47.0406 73.6064 47.728 72.7688 48.1339 71.7888C48.5398 70.8088 48.6461 69.7305 48.4391 68.6901C48.2322 67.6498 47.7214 66.6942 46.9713 65.9441C46.2213 65.1941 45.2657 64.6833 44.2253 64.4763C43.185 64.2694 42.1066 64.3756 41.1267 64.7815C40.1467 65.1875 39.3091 65.8749 38.7198 66.7568C38.1305 67.6388 37.8159 68.6757 37.8159 69.7364C37.8175 71.1583 38.3831 72.5215 39.3885 73.5269C40.394 74.5324 41.7572 75.0979 43.179 75.0995ZM43.179 67.5687C43.6078 67.5687 44.027 67.6959 44.3835 67.9341C44.74 68.1724 45.0179 68.511 45.182 68.9071C45.3461 69.3033 45.389 69.7392 45.3053 70.1597C45.2216 70.5803 45.0151 70.9666 44.7119 71.2697C44.4087 71.5729 44.0224 71.7794 43.6018 71.863C43.1813 71.9466 42.7454 71.9037 42.3492 71.7395C41.9531 71.5754 41.6145 71.2975 41.3763 70.9409C41.1382 70.5844 41.0111 70.1652 41.0111 69.7364C41.0117 69.1617 41.2404 68.6106 41.6468 68.2043C42.0532 67.7979 42.6043 67.5693 43.179 67.5687Z" fill="#2AC7D5"/>
<path d="M130.068 52.6626C129.865 52.715 129.674 52.807 129.507 52.9332C129.339 53.0595 129.198 53.2175 129.091 53.3983C128.985 53.579 128.915 53.779 128.886 53.9868C128.856 54.1946 128.868 54.4061 128.921 54.6093C131.589 64.8885 131.524 75.6865 128.733 85.933C125.942 96.1795 120.521 105.519 113.008 113.024C101.575 124.457 86.0693 130.88 69.901 130.88C53.7327 130.88 38.2265 124.457 26.7937 113.024C26.3986 112.629 26.0069 112.226 25.6205 111.817L32.5701 104.868C32.8807 104.557 33.0922 104.161 33.1779 103.73C33.2636 103.299 33.2196 102.852 33.0514 102.446C32.8833 102.04 32.5986 101.693 32.2333 101.449C31.868 101.205 31.4385 101.075 30.9991 101.074H13.739C13.3153 101.074 12.9089 101.243 12.6093 101.542C12.3097 101.842 12.1414 102.248 12.1414 102.672V119.899C12.1358 120.257 12.2149 120.611 12.3723 120.932C12.5296 121.253 12.7607 121.533 13.0467 121.747C13.4724 122.058 13.9951 122.206 14.5206 122.165C15.046 122.125 15.5396 121.897 15.9122 121.525L23.3597 114.077C23.7466 114.485 24.1382 114.887 24.5344 115.283C32.5151 123.26 42.458 128.991 53.3603 131.9C64.2627 134.808 75.7392 134.79 86.6326 131.848C97.526 128.907 107.451 123.144 115.407 115.143C123.363 107.142 129.069 97.1842 131.949 86.2744C134.737 75.6352 134.759 64.4602 132.015 53.8099C131.962 53.6068 131.87 53.416 131.744 53.2484C131.618 53.0808 131.46 52.9397 131.279 52.8331C131.098 52.7266 130.898 52.6567 130.691 52.6274C130.483 52.5982 130.271 52.6101 130.068 52.6626ZM15.3366 117.583V104.269H28.6498L15.3366 117.583Z" fill="#2AC7D5"/>
<path d="M24.1068 24.1232C34.5596 13.6711 48.4537 7.37238 63.2036 6.39914C77.9535 5.42591 92.5547 9.84441 104.29 18.8325L97.472 25.6518C97.1612 25.9625 96.9496 26.3584 96.8639 26.7894C96.7781 27.2205 96.8221 27.6672 96.9902 28.0732C97.1584 28.4793 97.4432 28.8263 97.8085 29.0705C98.1739 29.3146 98.6035 29.445 99.043 29.445H116.303C116.727 29.445 117.133 29.2767 117.433 28.9771C117.732 28.6775 117.901 28.2711 117.901 27.8474V10.5545C117.901 10.0251 117.71 9.51328 117.365 9.11212C117.019 8.71097 116.541 8.44712 116.018 8.36851C115.668 8.32001 115.312 8.35441 114.978 8.46892C114.644 8.58344 114.341 8.77488 114.095 9.02778L106.569 16.553C96.3354 8.60782 83.9361 3.94671 71.0026 3.18282C58.0691 2.41894 45.2074 5.58808 34.1094 12.2733C23.0114 18.9586 14.1971 28.8467 8.82601 40.6369C3.45493 52.4272 1.77871 65.5671 4.01789 78.3282C4.05901 78.5634 4.15232 78.7863 4.29098 78.9807C4.42963 79.1751 4.61009 79.3359 4.81909 79.4514C5.02808 79.5669 5.2603 79.634 5.49867 79.6479C5.73703 79.6618 5.97548 79.6221 6.19647 79.5317C6.5391 79.3829 6.82078 79.1217 6.99504 78.7913C7.16929 78.4609 7.22573 78.0809 7.15502 77.7141C5.48311 68.0767 6.15018 58.1788 9.10014 48.8529C12.0501 39.5269 17.1966 31.0459 24.1068 24.1232ZM114.706 12.9347V26.248H101.392L114.706 12.9347Z" fill="#2AC7D5"/>
</svg>
