<svg width="137" height="138" viewBox="0 0 137 138" fill="none" xmlns="http://www.w3.org/2000/svg">
<path d="M66.4062 38.5988H89.8295C90.2532 38.5988 90.6596 38.4304 90.9592 38.1308C91.2588 37.8312 91.4271 37.4249 91.4271 37.0012C91.4271 36.5775 91.2588 36.1711 90.9592 35.8715C90.6596 35.5719 90.2532 35.4036 89.8295 35.4036H66.4062C65.9825 35.4036 65.5761 35.5719 65.2765 35.8715C64.9769 36.1711 64.8086 36.5775 64.8086 37.0012C64.8086 37.4249 64.9769 37.8312 65.2765 38.1308C65.5761 38.4304 65.9825 38.5988 66.4062 38.5988Z" fill="#2AC7D5"/>
<path d="M66.4062 46.2242H74.6511C75.0748 46.2242 75.4811 46.0559 75.7807 45.7563C76.0803 45.4567 76.2487 45.0504 76.2487 44.6266C76.2487 44.2029 76.0803 43.7966 75.7807 43.497C75.4811 43.1974 75.0748 43.0291 74.6511 43.0291H66.4062C65.9825 43.0291 65.5761 43.1974 65.2765 43.497C64.9769 43.7966 64.8086 44.2029 64.8086 44.6266C64.8086 45.0504 64.9769 45.4567 65.2765 45.7563C65.5761 46.0559 65.9825 46.2242 66.4062 46.2242Z" fill="#2AC7D5"/>
<path d="M66.4062 62.8639H100.229C100.653 62.8639 101.059 62.6956 101.359 62.396C101.659 62.0964 101.827 61.69 101.827 61.2663C101.827 60.8426 101.659 60.4362 101.359 60.1366C101.059 59.837 100.653 59.6687 100.229 59.6687H66.4062C65.9825 59.6687 65.5761 59.837 65.2765 60.1366C64.9769 60.4362 64.8086 60.8426 64.8086 61.2663C64.8086 61.69 64.9769 62.0964 65.2765 62.396C65.5761 62.6956 65.9825 62.8639 66.4062 62.8639Z" fill="#2AC7D5"/>
<path d="M56.0487 34.9418L49.8541 41.1362L47.4649 38.9827C47.1494 38.7038 46.7366 38.5607 46.3163 38.5845C45.8959 38.6083 45.5019 38.7972 45.22 39.1099C44.9381 39.4227 44.7911 39.8341 44.8108 40.2546C44.8306 40.6752 45.0157 41.071 45.3257 41.3559L48.8404 44.5245C49.1445 44.7986 49.5422 44.9455 49.9514 44.9349C50.3607 44.9243 50.7503 44.757 51.0397 44.4675L58.3069 37.2003C58.4573 37.0524 58.5768 36.8762 58.6587 36.6818C58.7406 36.4875 58.7832 36.2789 58.7841 36.068C58.7849 35.8571 58.744 35.6481 58.6637 35.4531C58.5834 35.2581 58.4653 35.0809 58.3162 34.9318C58.167 34.7827 57.9899 34.6645 57.7949 34.5842C57.5999 34.5039 57.3909 34.463 57.18 34.4639C56.9691 34.4647 56.7605 34.5073 56.5661 34.5892C56.3718 34.6711 56.1956 34.7907 56.0477 34.941L56.0487 34.9418Z" fill="#2AC7D5"/>
<path d="M56.0487 60.1364L49.8541 66.331L47.4649 64.1775C47.1494 63.8986 46.7366 63.7555 46.3163 63.7793C45.8959 63.8032 45.5019 63.992 45.22 64.3047C44.9381 64.6175 44.7911 65.0289 44.8108 65.4495C44.8306 65.87 45.0157 66.2658 45.3257 66.5507L48.8404 69.7193C49.1445 69.9934 49.5422 70.1403 49.9515 70.1297C50.3607 70.1191 50.7503 69.9518 51.0398 69.6623L58.307 62.3954C58.6066 62.0958 58.7749 61.6894 58.775 61.2657C58.775 60.842 58.6067 60.4356 58.3071 60.136C58.0075 59.8363 57.6011 59.668 57.1774 59.668C56.7537 59.6679 56.3473 59.8362 56.0477 60.1358L56.0487 60.1364Z" fill="#2AC7D5"/>
<path d="M74.6511 67.2949H66.4062C65.9825 67.2949 65.5761 67.4632 65.2765 67.7628C64.9769 68.0624 64.8086 68.4688 64.8086 68.8925C64.8086 69.3162 64.9769 69.7226 65.2765 70.0222C65.5761 70.3218 65.9825 70.4901 66.4062 70.4901H74.6511C75.0748 70.4901 75.4811 70.3218 75.7807 70.0222C76.0803 69.7226 76.2487 69.3162 76.2487 68.8925C76.2487 68.4688 76.0803 68.0624 75.7807 67.7628C75.4811 67.4632 75.0748 67.2949 74.6511 67.2949Z" fill="#2AC7D5"/>
<path d="M54.3684 83.5029H46.0497C45.626 83.5029 45.2197 83.6712 44.9201 83.9709C44.6205 84.2705 44.4521 84.6768 44.4521 85.1005V93.4203C44.4521 93.844 44.6205 94.2503 44.9201 94.5499C45.2197 94.8496 45.626 95.0179 46.0497 95.0179H54.3695C54.7932 95.0179 55.1995 94.8496 55.4992 94.5499C55.7988 94.2503 55.9671 93.844 55.9671 93.4203V85.1005C55.9671 84.8906 55.9257 84.6828 55.8454 84.4889C55.765 84.295 55.6472 84.1188 55.4988 83.9705C55.3503 83.8221 55.1741 83.7045 54.9801 83.6242C54.7862 83.544 54.5783 83.5028 54.3684 83.5029ZM52.7708 91.8227H47.6473V86.6981H52.7719L52.7708 91.8227Z" fill="#2AC7D5"/>
<path d="M74.0432 84.1963H66.4062C65.9825 84.1963 65.5761 84.3646 65.2765 84.6642C64.9769 84.9638 64.8086 85.3702 64.8086 85.7939C64.8086 86.2176 64.9769 86.6239 65.2765 86.9235C65.5761 87.2232 65.9825 87.3915 66.4062 87.3915H74.0432C74.4669 87.3915 74.8733 87.2232 75.1729 86.9235C75.4725 86.6239 75.6408 86.2176 75.6408 85.7939C75.6408 85.3702 75.4725 84.9638 75.1729 84.6642C74.8733 84.3646 74.4669 84.1963 74.0432 84.1963Z" fill="#2AC7D5"/>
<path d="M71.1854 91.8228H66.4062C65.9825 91.8228 65.5761 91.9911 65.2765 92.2907C64.9769 92.5903 64.8086 92.9966 64.8086 93.4203C64.8086 93.8441 64.9769 94.2504 65.2765 94.55C65.5761 94.8496 65.9825 95.0179 66.4062 95.0179H71.1854C71.6091 95.0179 72.0154 94.8496 72.315 94.55C72.6146 94.2504 72.783 93.8441 72.783 93.4203C72.783 92.9966 72.6146 92.5903 72.315 92.2907C72.0154 91.9911 71.6091 91.8228 71.1854 91.8228Z" fill="#2AC7D5"/>
<path d="M10.6099 122.233C10.8728 122.233 11.1318 122.168 11.3637 122.043C11.5955 121.919 11.7932 121.74 11.939 121.521C16.079 115.324 18.2853 108.038 18.2783 100.585V26.2224C18.2783 25.406 18.6026 24.6231 19.1798 24.0459C19.7571 23.4686 20.54 23.1443 21.3563 23.1443C22.1726 23.1443 22.9555 23.4686 23.5328 24.0459C24.11 24.6231 24.4343 25.406 24.4343 26.2224V66.1012C24.4343 66.5249 24.6026 66.9312 24.9022 67.2309C25.2018 67.5305 25.6082 67.6988 26.0319 67.6988C26.4556 67.6988 26.862 67.5305 27.1616 67.2309C27.4612 66.9312 27.6295 66.5249 27.6295 66.1012V26.2224C27.6304 25.1266 27.344 24.0498 26.799 23.0992C26.254 22.1486 25.4693 21.3575 24.5231 20.8047C23.577 20.2519 22.5026 19.9568 21.4068 19.9488C20.3111 19.9407 19.2324 20.22 18.2783 20.7589V14.3951C18.2783 12.3613 17.4704 10.4108 16.0322 8.97272C14.5941 7.53461 12.6436 6.72668 10.6099 6.72668C8.57606 6.72668 6.62556 7.53461 5.18745 8.97272C3.74934 10.4108 2.94142 12.3613 2.94142 14.3951V100.585C2.93439 108.038 5.14073 115.325 9.28066 121.522C9.42659 121.74 9.62427 121.92 9.85614 122.044C10.088 122.168 10.3469 122.233 10.6099 122.233ZM6.1366 14.3951C6.1366 13.2087 6.60789 12.071 7.44679 11.2321C8.28568 10.3932 9.42347 9.92187 10.6099 9.92187C11.7962 9.92187 12.934 10.3932 13.7729 11.2321C14.6118 12.071 15.0831 13.2087 15.0831 14.3951V20.2074H6.1366V14.3951ZM6.1366 23.4034H15.0831V78.363H6.1366V23.4034ZM6.1366 81.559H15.0831V100.585C15.0892 106.545 13.5478 112.405 10.6099 117.59C7.67205 112.404 6.13069 106.545 6.1366 100.585V81.559Z" fill="#2AC7D5"/>
<path d="M10.6098 123.895C10.1861 123.895 9.77974 124.063 9.48013 124.363C9.18052 124.662 9.01221 125.069 9.01221 125.492V127.307C9.01221 127.731 9.18052 128.137 9.48013 128.437C9.77974 128.736 10.1861 128.905 10.6098 128.905C11.0335 128.905 11.4399 128.736 11.7395 128.437C12.0391 128.137 12.2074 127.731 12.2074 127.307V125.492C12.2074 125.069 12.0391 124.662 11.7395 124.363C11.4399 124.063 11.0335 123.895 10.6098 123.895Z" fill="#2AC7D5"/>
<path d="M120.458 82.5486V33.5335C120.458 33.1098 120.29 32.7035 119.99 32.404L94.7802 7.19398C94.4804 6.89458 94.074 6.72649 93.6504 6.72668H42.2481C39.9149 6.72929 37.678 7.65731 36.0282 9.30712C34.3784 10.9569 33.4504 13.1938 33.4478 15.527V109.163C33.4503 111.497 34.3783 113.734 36.0281 115.384C37.6779 117.033 39.9149 117.961 42.2481 117.964H85.2151C87.1719 121.487 89.9208 124.507 93.2448 126.785C96.5688 129.063 100.377 130.538 104.368 131.092C108.36 131.646 112.426 131.265 116.245 129.979C120.064 128.692 123.531 126.535 126.374 123.679C129.216 120.822 131.356 117.344 132.624 113.519C133.892 109.694 134.253 105.626 133.679 101.638C133.106 97.6488 131.613 93.848 129.318 90.5351C127.024 87.2223 123.99 84.4882 120.458 82.5486ZM95.248 12.1806L115.003 31.9359H100.853C99.3671 31.9343 97.9423 31.3432 96.8915 30.2924C95.8407 29.2416 95.2496 27.8168 95.248 26.3307V12.1806ZM42.2481 114.769C40.762 114.767 39.3372 114.176 38.2864 113.125C37.2356 112.074 36.6446 110.65 36.6429 109.163V15.5265C36.6447 14.0405 37.2358 12.6159 38.2866 11.5652C39.3374 10.5145 40.7621 9.92349 42.2481 9.92187H92.0528V26.3307C92.0554 28.6639 92.9834 30.9008 94.6332 32.5506C96.2831 34.2004 98.5199 35.1285 100.853 35.1311H117.263V81.0618C112.118 79.0847 106.477 78.7947 101.156 80.2337L100.282 77.6105C100.176 77.2925 99.9724 77.016 99.7004 76.8201C99.4284 76.6242 99.1016 76.5188 98.7664 76.5188C93.4393 76.5197 88.3307 78.6364 84.5641 82.4035C80.7976 86.1706 78.6815 91.2796 78.6815 96.6067C78.6814 96.9419 78.7868 97.2686 78.9828 97.5406C79.1787 97.8126 79.4552 98.0161 79.7732 98.1222L82.6949 99.096C81.4081 104.3 81.7615 109.775 83.7067 114.771L42.2481 114.769ZM105.486 103.321L81.9147 95.4662C82.1909 91.3895 83.9349 87.5509 86.824 84.6613C89.7131 81.7718 93.5514 80.027 97.6281 79.7502L105.486 103.321ZM107.94 128.144C104.5 128.143 101.105 127.365 98.0086 125.867C94.9121 124.369 92.1946 122.19 90.0591 119.493C87.9237 116.797 86.4256 113.652 85.6771 110.295C84.9286 106.937 84.949 103.454 85.7367 100.106L106.152 106.91C106.559 107.045 106.996 107.065 107.413 106.966C107.831 106.867 108.213 106.654 108.517 106.35C108.82 106.047 109.033 105.665 109.132 105.247C109.231 104.829 109.211 104.392 109.076 103.985L102.169 83.2662C105.304 82.4468 108.578 82.3048 111.773 82.8499C114.967 83.3949 118.009 84.6145 120.695 86.4273C123.382 88.2401 125.651 90.6045 127.352 93.363C129.053 96.1215 130.146 99.2108 130.56 102.425C130.973 105.639 130.697 108.905 129.749 112.004C128.801 115.103 127.204 117.965 125.064 120.398C122.924 122.832 120.289 124.781 117.337 126.117C114.384 127.452 111.181 128.143 107.94 128.144Z" fill="#2AC7D5"/>
</svg>
