<svg width="42" height="42" viewBox="0 0 42 42" fill="none" xmlns="http://www.w3.org/2000/svg">
<circle cx="21" cy="21" r="21" fill="#2AC7D5"/>
<path fill-rule="evenodd" clip-rule="evenodd" d="M32.0642 12.702C31.1282 11.766 29.6106 11.766 28.6746 12.702L18.6601 22.7166L14.0916 18.1481C13.1556 17.2121 11.638 17.2121 10.702 18.1481C9.766 19.0841 9.766 20.6017 10.702 21.5377L16.9575 27.7931C16.96 27.7957 16.9626 27.7983 16.9653 27.8009C17.3163 28.1519 17.749 28.3713 18.2023 28.4591C18.8648 28.5874 19.5711 28.4343 20.1294 28C20.2077 27.9392 20.283 27.8728 20.3548 27.8009M20.361 27.7948L32.0642 16.0916C33.0002 15.1556 33.0002 13.638 32.0642 12.702" fill="#2B3039"/>
</svg>
