<svg width="78" height="78" viewBox="0 0 78 78" fill="none" xmlns="http://www.w3.org/2000/svg">
<path d="M36.4145 58.6478C36.7541 58.9873 37.1571 59.2566 37.6007 59.4404C38.0443 59.6241 38.5198 59.7187 39 59.7187C39.4801 59.7187 39.9556 59.6241 40.3992 59.4404C40.8428 59.2566 41.2459 58.9873 41.5854 58.6478L55.3739 44.8593C56.0595 44.1736 56.4447 43.2436 56.4447 42.2739C56.4447 41.3043 56.0595 40.3743 55.3739 39.6886C54.6882 39.0029 53.7582 38.6177 52.7885 38.6177C51.8188 38.6177 50.8888 39.0029 50.2032 39.6886L42.6562 47.2355V7.3125C42.6562 6.3428 42.271 5.41282 41.5853 4.72714C40.8996 4.04146 39.9697 3.65625 39 3.65625C38.0303 3.65625 37.1003 4.04146 36.4146 4.72714C35.7289 5.41282 35.3437 6.3428 35.3437 7.3125V47.2355L27.7968 39.6886C27.1111 39.0029 26.1811 38.6177 25.2114 38.6177C24.2417 38.6177 23.3117 39.0029 22.6261 39.6886C21.9404 40.3743 21.5552 41.3043 21.5552 42.2739C21.5552 43.2436 21.9404 44.1736 22.6261 44.8593L36.4145 58.6478Z" fill="white"/>
<path d="M70.6875 35.3438C69.7178 35.3438 68.7878 35.729 68.1021 36.4146C67.4165 37.1003 67.0312 38.0303 67.0312 39V67.0312H10.9688V39C10.9688 38.0303 10.5835 37.1003 9.89786 36.4146C9.21218 35.729 8.2822 35.3438 7.3125 35.3438C6.3428 35.3438 5.41282 35.729 4.72714 36.4146C4.04146 37.1003 3.65625 38.0303 3.65625 39V68.25C3.65625 69.8662 4.29827 71.4161 5.44107 72.5589C6.58387 73.7017 8.13384 74.3438 9.75 74.3438H68.25C69.8662 74.3438 71.4161 73.7017 72.5589 72.5589C73.7017 71.4161 74.3438 69.8662 74.3438 68.25V39C74.3438 38.0303 73.9585 37.1003 73.2729 36.4146C72.5872 35.729 71.6572 35.3438 70.6875 35.3438Z" fill="white"/>
</svg>
