<svg width="31" height="31" viewBox="0 0 31 31" fill="none" xmlns="http://www.w3.org/2000/svg">
<path d="M15.2873 28.3738H26.8737C27.5844 28.3738 28.1611 27.797 28.1611 27.0864V3.91365C28.1611 3.20301 27.5843 2.6263 26.8737 2.6263H15.2873C14.5754 2.6263 14 2.05086 14 1.33895C14 0.627042 14.5754 0.0514832 15.2873 0.0514832H26.8737C29.003 0.0514832 30.7358 1.78433 30.7358 3.91365V27.0864C30.7358 29.2157 29.003 30.9485 26.8737 30.9485H15.2873C14.5754 30.9485 14 30.3731 14 29.6611C14 28.9492 14.5754 28.3738 15.2873 28.3738Z" fill="white"/>
<path d="M21.3174 14.5834L13.4901 6.85912C12.9854 6.35961 12.1693 6.36609 11.6698 6.87202C11.1702 7.37795 11.1754 8.19285 11.6826 8.69236L17.2763 14.2126H2.28735C1.57544 14.2126 1 14.788 1 15.4999C1 16.2119 1.57544 16.7874 2.28735 16.7874H17.2763L11.6826 22.3076C11.1754 22.8071 11.1716 23.622 11.6698 24.1279C11.9221 24.3828 12.2542 24.5116 12.5864 24.5116C12.9134 24.5116 13.2403 24.388 13.4901 24.1408L21.3174 16.4165C21.562 16.1745 21.701 15.8449 21.701 15.4999C21.701 15.155 21.5632 14.8267 21.3174 14.5834Z" fill="white"/>
</svg>
