<svg width="26" height="26" viewBox="0 0 26 26" fill="none" xmlns="http://www.w3.org/2000/svg">
<circle cx="13" cy="13" r="13" fill="#2AC4D1"/>
<path fill-rule="evenodd" clip-rule="evenodd" d="M13.2474 3.91249C12.3927 3.91249 11.6998 4.60538 11.6998 5.46011V11.7221H5.5746C4.71987 11.7221 4.02698 12.415 4.02698 13.2698C4.02698 14.1245 4.71987 14.8174 5.5746 14.8174H11.6998V20.9363C11.6998 21.791 12.3927 22.4839 13.2474 22.4839C14.1022 22.4839 14.7951 21.791 14.7951 20.9363V14.8174H21.0508C21.9055 14.8174 22.5984 14.1245 22.5984 13.2698C22.5984 12.415 21.9055 11.7221 21.0508 11.7221H14.7951V5.46011C14.7951 4.60538 14.1022 3.91249 13.2474 3.91249Z" fill="#2B3039"/>
</svg>
