<svg width="20" height="20" viewBox="0 0 20 20" fill="none" xmlns="http://www.w3.org/2000/svg">
<circle cx="10" cy="10" r="10" fill="#4F5765"/>
<path fill-rule="evenodd" clip-rule="evenodd" d="M10 4.5C9.44772 4.5 9 4.94771 9 5.5V8.99998H5.5C4.94772 8.99998 4.5 9.4477 4.5 9.99998C4.5 10.5523 4.94771 11 5.5 11H9V14.5C9 15.0523 9.44772 15.5 10 15.5C10.5523 15.5 11 15.0523 11 14.5V11H14.5C15.0523 11 15.5 10.5523 15.5 9.99998C15.5 9.4477 15.0523 8.99998 14.5 8.99998H11V5.5C11 4.94772 10.5523 4.5 10 4.5Z" fill="#C4C4C4"/>
</svg>
