<svg width="32" height="32" viewBox="0 0 32 32" fill="none" xmlns="http://www.w3.org/2000/svg">
<circle cx="16" cy="16" r="16" fill="#4F5765"/>
<path fill-rule="evenodd" clip-rule="evenodd" d="M16 7.2C15.1164 7.2 14.4 7.91635 14.4 8.8V14.4H8.80001C7.91636 14.4 7.20001 15.1163 7.20001 16C7.20001 16.8836 7.91636 17.6 8.80001 17.6H14.4V23.2C14.4 24.0837 15.1164 24.8 16 24.8C16.8837 24.8 17.6 24.0837 17.6 23.2V17.6H23.2C24.0837 17.6 24.8 16.8836 24.8 16C24.8 15.1163 24.0837 14.4 23.2 14.4H17.6V8.8C17.6 7.91635 16.8837 7.2 16 7.2Z" fill="#C4C4C4"/>
</svg>
