<svg width="31" height="31" viewBox="0 0 31 31" fill="none" xmlns="http://www.w3.org/2000/svg">
<path d="M16.7917 23.25C16.7917 23.9633 16.2134 24.5416 15.5001 24.5416C14.7868 24.5416 14.2085 23.9633 14.2085 23.25C14.2085 22.5367 14.7868 21.9584 15.5001 21.9584C16.2134 21.9584 16.7917 22.5367 16.7917 23.25Z" fill="white"/>
<path d="M15.5 31C6.95296 31 0 24.047 0 15.5C0 6.95296 6.95296 0 15.5 0C24.047 0 31 6.95296 31 15.5C31 24.047 24.047 31 15.5 31ZM15.5 1.9375C8.02128 1.9375 1.9375 8.02128 1.9375 15.5C1.9375 22.9787 8.02128 29.0625 15.5 29.0625C22.9787 29.0625 29.0625 22.9787 29.0625 15.5C29.0625 8.02128 22.9787 1.9375 15.5 1.9375Z" fill="white"/>
<path d="M15.4999 19.0522C14.9652 19.0522 14.5312 18.6182 14.5312 18.0834V16.7788C14.5312 15.5492 15.3114 14.4473 16.4713 14.0379C18.0147 13.4942 19.0521 11.8497 19.0521 10.6563C19.0521 8.69676 17.4594 7.1041 15.4999 7.1041C13.5404 7.1041 11.9478 8.69676 11.9478 10.6563C11.9478 11.191 11.5138 11.625 10.979 11.625C10.4443 11.625 10.0103 11.191 10.0103 10.6563C10.0103 7.62986 12.4723 5.1666 15.4999 5.1666C18.5275 5.1666 20.9896 7.62986 20.9896 10.6563C20.9896 12.8109 19.2884 15.0984 17.1158 15.8657C16.7284 16.0012 16.4687 16.3692 16.4687 16.78V18.0834C16.4687 18.6182 16.0347 19.0522 15.4999 19.0522Z" fill="white"/>
</svg>
