<svg width="20" height="19" viewBox="0 0 20 19" fill="none" xmlns="http://www.w3.org/2000/svg">
<path d="M16.25 12.3203C15.0152 12.3203 13.918 12.8548 13.2343 13.6774L7.348 10.9983C7.44675 10.6995 7.5 10.3835 7.5 10.0566C7.5 9.61389 7.40254 9.1911 7.22608 8.80409L13.3953 5.50291C14.0836 6.22246 15.1079 6.67969 16.25 6.67969C18.3178 6.67969 20 5.18143 20 3.33984C20 1.49825 18.3178 0 16.25 0C14.1823 0 12.5 1.49825 12.5 3.33984C12.5 3.76549 12.59 4.17269 12.7537 4.54738L6.56917 7.8568C5.88133 7.15847 4.87254 6.7168 3.75 6.7168C1.68225 6.7168 0 8.21505 0 10.0566C0 11.8982 1.68225 13.3965 3.75 13.3965C5.00508 13.3965 6.118 12.8444 6.79904 11.9987L12.6682 14.67C12.5589 14.983 12.5 15.3156 12.5 15.6602C12.5 17.5017 14.1823 19 16.25 19C18.3178 19 20 17.5017 20 15.6602C20 13.8186 18.3178 12.3203 16.25 12.3203ZM16.25 1.11328C17.6285 1.11328 18.75 2.11212 18.75 3.33984C18.75 4.56757 17.6285 5.56641 16.25 5.56641C14.8715 5.56641 13.75 4.56757 13.75 3.33984C13.75 2.11212 14.8715 1.11328 16.25 1.11328ZM3.75 12.2832C2.3715 12.2832 1.25 11.2844 1.25 10.0566C1.25 8.82891 2.3715 7.83008 3.75 7.83008C5.1285 7.83008 6.25 8.82891 6.25 10.0566C6.25 11.2844 5.1285 12.2832 3.75 12.2832ZM16.25 17.8867C14.8715 17.8867 13.75 16.8879 13.75 15.6602C13.75 14.4324 14.8715 13.4336 16.25 13.4336C17.6285 13.4336 18.75 14.4324 18.75 15.6602C18.75 16.8879 17.6285 17.8867 16.25 17.8867Z" fill="white"/>
</svg>
